<?xml version="1.0" encoding="UTF-8"?>
<svg xmlns="http://www.w3.org/2000/svg" xmlns:xlink="http://www.w3.org/1999/xlink" width="32px" height="32px" viewBox="0 0 32 32" version="1.1">
<g id="surface1">
<path style=" stroke:none;fill-rule:nonzero;fill:rgb(12.54902%,12.54902%,12.54902%);fill-opacity:1;" d="M 17.792969 7.039062 C 17.792969 7.082031 17.792969 7.125 17.792969 7.167969 C 17.828125 7.183594 17.863281 7.195312 17.898438 7.210938 C 18.394531 7.492188 18.707031 8.046875 18.878906 8.574219 C 19.097656 9.566406 18.976562 10.414062 18.449219 11.277344 C 18.242188 11.566406 17.957031 11.773438 17.664062 11.96875 C 17.722656 11.976562 17.785156 11.988281 17.847656 12 C 19.261719 12.257812 19.261719 12.257812 19.585938 12.671875 C 19.617188 12.886719 19.617188 12.886719 19.585938 13.121094 C 19.359375 13.398438 19.164062 13.496094 18.824219 13.585938 C 18.75 13.605469 18.675781 13.625 18.597656 13.644531 C 18.371094 13.695312 18.148438 13.730469 17.921875 13.761719 C 18.074219 16.273438 18.074219 16.273438 19.246094 18.410156 C 19.328125 18.496094 19.328125 18.496094 19.328125 18.625 C 19.371094 18.625 19.414062 18.625 19.457031 18.625 C 19.550781 18.71875 19.550781 18.71875 19.65625 18.839844 C 19.691406 18.878906 19.726562 18.921875 19.761719 18.960938 C 19.839844 19.070312 19.839844 19.070312 19.839844 19.199219 C 19.882812 19.199219 19.925781 19.199219 19.96875 19.199219 C 20.074219 19.363281 20.097656 19.449219 20.085938 19.648438 C 20.03125 19.84375 19.964844 19.941406 19.839844 20.097656 C 19.886719 20.125 19.929688 20.15625 19.976562 20.1875 C 20.035156 20.226562 20.09375 20.265625 20.15625 20.308594 C 20.214844 20.347656 20.273438 20.386719 20.332031 20.425781 C 20.480469 20.542969 20.480469 20.542969 20.542969 20.734375 C 20.585938 20.734375 20.628906 20.734375 20.671875 20.734375 C 20.828125 21.101562 20.902344 21.363281 20.863281 21.761719 C 20.742188 22.050781 20.742188 22.050781 20.558594 22.128906 C 20.359375 22.148438 20.242188 22.082031 20.0625 21.992188 C 19.863281 21.890625 19.675781 21.804688 19.457031 21.761719 C 19.457031 21.71875 19.457031 21.675781 19.457031 21.632812 C 19.375 21.621094 19.375 21.621094 19.292969 21.613281 C 18.789062 21.511719 18.398438 21.292969 18.113281 20.863281 C 18.097656 20.714844 18.097656 20.714844 18.097656 20.539062 C 18.101562 20.441406 18.101562 20.441406 18.101562 20.347656 C 18.101562 20.25 18.101562 20.25 18.105469 20.148438 C 18.105469 20.082031 18.105469 20.015625 18.105469 19.945312 C 18.105469 19.785156 18.109375 19.621094 18.113281 19.457031 C 18.152344 19.457031 18.195312 19.457031 18.238281 19.457031 C 18.292969 19.277344 18.292969 19.277344 18.304688 19.070312 C 18.1875 18.917969 18.1875 18.917969 18.046875 18.816406 C 17.921875 18.878906 17.921875 18.878906 17.792969 18.945312 C 17.792969 19.113281 17.792969 19.28125 17.792969 19.457031 C 17.835938 19.457031 17.875 19.457031 17.921875 19.457031 C 17.921875 19.496094 17.921875 19.539062 17.925781 19.582031 C 17.933594 19.769531 17.941406 19.957031 17.949219 20.144531 C 17.949219 20.210938 17.953125 20.273438 17.957031 20.339844 C 17.957031 20.402344 17.960938 20.464844 17.964844 20.53125 C 17.964844 20.589844 17.96875 20.644531 17.972656 20.707031 C 17.984375 20.851562 18.007812 20.980469 18.046875 21.121094 C 18.089844 21.121094 18.132812 21.121094 18.175781 21.121094 C 18.175781 21.164062 18.175781 21.203125 18.175781 21.246094 C 18.21875 21.265625 18.261719 21.28125 18.304688 21.296875 C 18.539062 21.394531 18.765625 21.507812 18.992188 21.625 C 19.589844 21.925781 20.144531 22.167969 20.796875 22.328125 C 21.011719 22.40625 21.078125 22.457031 21.183594 22.65625 C 21.226562 22.832031 21.226562 22.832031 21.246094 22.976562 C 21.320312 22.984375 21.390625 22.988281 21.464844 22.996094 C 22.332031 23.085938 23.171875 23.214844 24 23.488281 C 24 23.574219 24 23.65625 24 23.742188 C 23.53125 23.984375 23.054688 24.0625 22.539062 23.929688 C 22.148438 23.835938 21.820312 23.941406 21.441406 24.035156 C 19.722656 24.429688 17.929688 24.40625 16.175781 24.402344 C 15.957031 24.402344 15.734375 24.40625 15.515625 24.40625 C 14.332031 24.410156 13.15625 24.394531 11.976562 24.292969 C 11.929688 24.289062 11.882812 24.285156 11.832031 24.28125 C 11.34375 24.242188 10.859375 24.1875 10.375 24.085938 C 10.191406 24.054688 10.039062 24.089844 9.855469 24.128906 C 9.117188 24.195312 8.316406 24.042969 7.617188 23.808594 C 7.636719 23.703125 7.660156 23.597656 7.679688 23.488281 C 8.570312 23.257812 9.445312 23.09375 10.359375 22.996094 C 10.507812 22.976562 10.507812 22.976562 10.6875 22.910156 C 10.734375 22.765625 10.777344 22.613281 10.816406 22.464844 C 10.925781 22.355469 11.085938 22.375 11.234375 22.355469 C 11.992188 22.242188 12.664062 21.9375 13.335938 21.589844 C 13.382812 21.5625 13.429688 21.539062 13.476562 21.515625 C 13.691406 21.398438 13.816406 21.324219 13.953125 21.121094 C 13.921875 21.144531 13.886719 21.167969 13.855469 21.191406 C 13.441406 21.484375 13.011719 21.667969 12.535156 21.847656 C 12.425781 21.890625 12.425781 21.890625 12.316406 21.933594 C 11.601562 22.207031 11.601562 22.207031 11.265625 22.144531 C 11.101562 22.003906 11.074219 21.910156 11.039062 21.703125 C 11.03125 21.265625 11.0625 20.957031 11.332031 20.605469 C 11.539062 20.394531 11.777344 20.242188 12.03125 20.097656 C 11.96875 20.011719 11.96875 20.011719 11.902344 19.925781 C 11.769531 19.703125 11.738281 19.640625 11.777344 19.390625 C 11.898438 19.226562 11.898438 19.226562 12.058594 19.058594 C 12.261719 18.859375 12.261719 18.859375 12.414062 18.625 C 12.457031 18.625 12.5 18.625 12.542969 18.625 C 12.5625 18.585938 12.578125 18.550781 12.597656 18.511719 C 12.671875 18.371094 12.753906 18.257812 12.851562 18.136719 C 13.777344 16.914062 13.828125 15.230469 13.953125 13.761719 C 13.886719 13.75 13.824219 13.738281 13.757812 13.726562 C 13.671875 13.707031 13.585938 13.691406 13.5 13.675781 C 13.457031 13.667969 13.414062 13.660156 13.371094 13.652344 C 12.96875 13.574219 12.539062 13.46875 12.289062 13.121094 C 12.257812 12.929688 12.257812 12.929688 12.289062 12.734375 C 12.722656 12.207031 13.570312 12.097656 14.207031 11.96875 C 14.167969 11.941406 14.125 11.910156 14.082031 11.882812 C 13.390625 11.375 13.042969 10.703125 12.894531 9.867188 C 12.796875 9.074219 13.027344 8.355469 13.441406 7.679688 C 13.539062 7.554688 13.636719 7.464844 13.761719 7.359375 C 13.796875 7.320312 13.832031 7.285156 13.867188 7.242188 C 13.953125 7.167969 13.953125 7.167969 14.078125 7.167969 C 14.078125 7.125 14.078125 7.082031 14.078125 7.039062 C 15.363281 6.367188 16.496094 6.222656 17.792969 7.039062 Z M 15.9375 16.191406 C 15.9375 16.253906 15.9375 16.320312 15.9375 16.382812 C 16 16.382812 16.0625 16.382812 16.128906 16.382812 C 16.128906 16.320312 16.128906 16.257812 16.128906 16.191406 C 16.066406 16.191406 16 16.191406 15.9375 16.191406 Z M 14.078125 18.753906 C 13.941406 18.859375 13.941406 18.859375 13.824219 19.007812 C 13.835938 19.183594 13.875 19.300781 13.953125 19.457031 C 14.195312 19.4375 14.195312 19.4375 14.398438 19.328125 C 14.402344 19.179688 14.402344 19.03125 14.398438 18.878906 C 14.242188 18.816406 14.242188 18.816406 14.078125 18.753906 Z M 17.601562 21.761719 C 17.621094 21.925781 17.640625 22.050781 17.742188 22.1875 C 17.894531 22.300781 17.996094 22.292969 18.1875 22.285156 C 18.246094 22.28125 18.304688 22.28125 18.363281 22.277344 C 18.429688 22.277344 18.429688 22.277344 18.496094 22.273438 C 18.496094 22.230469 18.496094 22.1875 18.496094 22.144531 C 18.371094 22.078125 18.246094 22.015625 18.121094 21.953125 C 18.050781 21.917969 17.980469 21.878906 17.910156 21.84375 C 17.742188 21.75 17.742188 21.75 17.601562 21.761719 Z M 13.695312 22.273438 C 13.652344 22.3125 13.613281 22.355469 13.566406 22.398438 C 13.652344 22.398438 13.738281 22.398438 13.824219 22.398438 C 13.824219 22.359375 13.824219 22.316406 13.824219 22.273438 C 13.78125 22.273438 13.738281 22.273438 13.695312 22.273438 Z M 12.734375 22.65625 C 12.921875 22.667969 12.921875 22.667969 13.121094 22.65625 C 13.164062 22.613281 13.203125 22.570312 13.246094 22.527344 C 13.011719 22.515625 12.941406 22.519531 12.734375 22.65625 Z M 12.734375 22.65625 "/>
<path style=" stroke:none;fill-rule:nonzero;fill:rgb(12.941177%,12.941177%,12.941177%);fill-opacity:1;" d="M 16.191406 16.832031 C 16.234375 16.832031 16.277344 16.832031 16.320312 16.832031 C 16.320312 17.167969 16.320312 17.507812 16.320312 17.855469 C 16.445312 17.886719 16.445312 17.886719 16.574219 17.921875 C 16.75 18.078125 16.765625 18.171875 16.789062 18.40625 C 16.792969 18.496094 16.789062 18.589844 16.789062 18.679688 C 16.789062 18.78125 16.792969 18.878906 16.792969 18.980469 C 16.792969 19.136719 16.792969 19.292969 16.792969 19.449219 C 16.789062 19.601562 16.792969 19.753906 16.792969 19.902344 C 16.792969 19.949219 16.792969 19.996094 16.789062 20.042969 C 16.792969 20.300781 16.824219 20.40625 16.992188 20.605469 C 17.042969 20.648438 17.097656 20.691406 17.152344 20.734375 C 17.257812 20.839844 17.222656 20.96875 17.222656 21.113281 C 17.257812 21.558594 17.476562 21.953125 17.792969 22.273438 C 17.90625 22.28125 18.019531 22.289062 18.132812 22.292969 C 18.203125 22.296875 18.273438 22.296875 18.34375 22.300781 C 18.417969 22.304688 18.488281 22.304688 18.5625 22.308594 C 18.636719 22.3125 18.710938 22.3125 18.785156 22.316406 C 18.964844 22.324219 19.148438 22.328125 19.328125 22.335938 C 19.117188 22.449219 18.976562 22.476562 18.734375 22.472656 C 18.679688 22.472656 18.621094 22.46875 18.5625 22.46875 C 18.519531 22.46875 18.476562 22.464844 18.433594 22.464844 C 18.433594 22.527344 18.433594 22.589844 18.433594 22.65625 C 19.085938 22.65625 19.742188 22.65625 20.414062 22.65625 C 20.4375 22.570312 20.457031 22.488281 20.480469 22.398438 C 20.542969 22.398438 20.605469 22.398438 20.671875 22.398438 C 20.671875 22.464844 20.671875 22.527344 20.671875 22.59375 C 20.691406 22.550781 20.714844 22.507812 20.734375 22.464844 C 20.984375 22.519531 20.984375 22.519531 21.054688 22.59375 C 21.0625 22.773438 21.0625 22.957031 21.058594 23.140625 C 21.058594 23.191406 21.058594 23.242188 21.058594 23.296875 C 21.058594 23.425781 21.058594 23.550781 21.054688 23.679688 C 18.90625 24.753906 13.292969 24.273438 11.007812 23.742188 C 10.902344 23.660156 10.902344 23.660156 10.816406 23.550781 C 10.800781 23.363281 10.796875 23.1875 10.800781 23 C 10.800781 22.949219 10.800781 22.898438 10.800781 22.847656 C 10.804688 22.472656 10.804688 22.472656 10.878906 22.398438 C 11 22.382812 11.117188 22.371094 11.234375 22.355469 C 11.6875 22.289062 12.078125 22.148438 12.496094 21.980469 C 13.175781 21.71875 13.175781 21.71875 13.441406 21.824219 C 13.441406 21.972656 13.441406 22.121094 13.441406 22.273438 C 13.070312 22.464844 13.070312 22.464844 12.929688 22.464844 C 12.929688 22.507812 12.929688 22.546875 12.929688 22.59375 C 13.59375 22.582031 14.226562 22.261719 14.71875 21.824219 C 14.925781 21.527344 14.984375 21.351562 15.007812 20.992188 C 15.046875 20.832031 15.117188 20.773438 15.230469 20.660156 C 15.539062 20.261719 15.476562 19.753906 15.472656 19.277344 C 15.472656 19.128906 15.472656 18.984375 15.472656 18.839844 C 15.476562 18.710938 15.472656 18.578125 15.472656 18.449219 C 15.488281 18.238281 15.488281 18.238281 15.617188 18.046875 C 15.679688 18.046875 15.742188 18.046875 15.808594 18.046875 C 15.839844 17.953125 15.839844 17.953125 15.871094 17.855469 C 15.894531 17.855469 15.914062 17.855469 15.9375 17.855469 C 15.941406 18.355469 15.945312 18.859375 15.945312 19.359375 C 15.949219 19.53125 15.949219 19.699219 15.949219 19.871094 C 15.953125 20.117188 15.953125 20.359375 15.953125 20.605469 C 15.957031 20.683594 15.957031 20.757812 15.957031 20.835938 C 15.957031 21.390625 15.875 21.796875 15.546875 22.261719 C 15.515625 22.304688 15.484375 22.351562 15.449219 22.402344 C 15.421875 22.441406 15.390625 22.484375 15.359375 22.527344 C 15.316406 22.589844 15.277344 22.65625 15.230469 22.71875 C 15.582031 22.652344 15.71875 22.503906 15.910156 22.222656 C 16.179688 21.839844 16.179688 21.839844 16.226562 21.394531 C 16.191406 21.171875 16.183594 20.964844 16.183594 20.742188 C 16.183594 20.699219 16.183594 20.65625 16.183594 20.613281 C 16.183594 20.472656 16.183594 20.332031 16.1875 20.195312 C 16.1875 20.097656 16.1875 20 16.1875 19.902344 C 16.1875 19.648438 16.1875 19.394531 16.1875 19.140625 C 16.1875 18.878906 16.1875 18.621094 16.1875 18.359375 C 16.191406 17.851562 16.191406 17.339844 16.191406 16.832031 Z M 16.191406 16.832031 "/>
<path style=" stroke:none;fill-rule:nonzero;fill:rgb(79.215688%,79.215688%,79.215688%);fill-opacity:1;" d="M 17.089844 17.40625 C 17.152344 17.449219 17.214844 17.492188 17.28125 17.535156 C 17.3125 17.882812 17.3125 17.882812 17.28125 18.046875 C 17.234375 18.085938 17.234375 18.085938 17.183594 18.125 C 16.980469 18.367188 17.050781 18.75 17.050781 19.050781 C 17.050781 19.183594 17.046875 19.316406 17.042969 19.449219 C 17.03125 19.980469 17.03125 19.980469 17.273438 20.429688 C 17.308594 20.457031 17.34375 20.488281 17.375 20.519531 C 17.488281 20.621094 17.539062 20.726562 17.601562 20.863281 C 17.742188 20.570312 17.753906 20.300781 17.769531 19.980469 C 17.773438 19.90625 17.773438 19.90625 17.777344 19.828125 C 17.78125 19.703125 17.785156 19.578125 17.792969 19.457031 C 17.835938 19.457031 17.875 19.457031 17.921875 19.457031 C 17.921875 19.496094 17.921875 19.539062 17.925781 19.582031 C 17.933594 19.769531 17.941406 19.957031 17.949219 20.144531 C 17.949219 20.210938 17.953125 20.273438 17.957031 20.339844 C 17.960938 20.433594 17.960938 20.433594 17.964844 20.53125 C 17.964844 20.589844 17.96875 20.644531 17.972656 20.707031 C 17.984375 20.851562 18.007812 20.980469 18.046875 21.121094 C 18.089844 21.121094 18.132812 21.121094 18.175781 21.121094 C 18.175781 21.164062 18.175781 21.203125 18.175781 21.246094 C 18.238281 21.273438 18.238281 21.273438 18.304688 21.296875 C 18.539062 21.394531 18.765625 21.507812 18.992188 21.625 C 19.589844 21.925781 20.144531 22.167969 20.796875 22.328125 C 21.011719 22.40625 21.078125 22.457031 21.183594 22.65625 C 21.226562 22.832031 21.226562 22.832031 21.246094 22.976562 C 21.355469 22.988281 21.355469 22.988281 21.464844 22.996094 C 22.332031 23.085938 23.171875 23.214844 24 23.488281 C 24 23.574219 24 23.65625 24 23.742188 C 23.53125 23.984375 23.054688 24.0625 22.539062 23.929688 C 22.148438 23.835938 21.820312 23.941406 21.441406 24.035156 C 19.722656 24.429688 17.929688 24.40625 16.175781 24.402344 C 15.957031 24.402344 15.734375 24.40625 15.515625 24.40625 C 14.332031 24.410156 13.15625 24.394531 11.976562 24.292969 C 11.929688 24.289062 11.882812 24.285156 11.832031 24.28125 C 11.34375 24.242188 10.859375 24.1875 10.375 24.085938 C 10.191406 24.054688 10.039062 24.089844 9.855469 24.128906 C 9.117188 24.195312 8.316406 24.042969 7.617188 23.808594 C 7.636719 23.703125 7.660156 23.597656 7.679688 23.488281 C 8.570312 23.257812 9.445312 23.09375 10.359375 22.996094 C 10.507812 22.976562 10.507812 22.976562 10.6875 22.910156 C 10.710938 22.804688 10.730469 22.699219 10.753906 22.59375 C 10.773438 22.59375 10.792969 22.59375 10.816406 22.59375 C 10.820312 22.660156 10.824219 22.726562 10.824219 22.796875 C 10.832031 22.886719 10.835938 22.976562 10.839844 23.0625 C 10.84375 23.109375 10.84375 23.152344 10.847656 23.199219 C 10.855469 23.46875 10.855469 23.46875 11.007812 23.679688 C 14.113281 24.320312 17.917969 24.035156 21.054688 23.679688 C 21.035156 23.320312 21.015625 22.960938 20.992188 22.59375 C 20.929688 22.59375 20.867188 22.59375 20.800781 22.59375 C 20.757812 22.59375 20.714844 22.59375 20.671875 22.59375 C 20.671875 22.527344 20.671875 22.464844 20.671875 22.398438 C 20.609375 22.398438 20.546875 22.398438 20.480469 22.398438 C 20.457031 22.503906 20.4375 22.609375 20.414062 22.71875 C 20.207031 22.722656 19.996094 22.722656 19.785156 22.722656 C 19.726562 22.722656 19.667969 22.726562 19.605469 22.726562 C 19.210938 22.726562 18.824219 22.703125 18.433594 22.65625 C 18.433594 22.59375 18.433594 22.527344 18.433594 22.464844 C 18.644531 22.441406 18.855469 22.421875 19.070312 22.398438 C 18.941406 22.402344 18.941406 22.402344 18.808594 22.40625 C 17.898438 22.40625 17.898438 22.40625 17.613281 22.210938 C 17.5 22.066406 17.417969 21.929688 17.34375 21.761719 C 17.320312 21.71875 17.296875 21.675781 17.273438 21.636719 C 17.203125 21.46875 17.199219 21.332031 17.195312 21.152344 C 17.179688 20.859375 17.179688 20.859375 16.992188 20.636719 C 16.9375 20.605469 16.886719 20.574219 16.832031 20.542969 C 16.734375 20.347656 16.757812 20.140625 16.753906 19.921875 C 16.753906 19.820312 16.75 19.722656 16.75 19.621094 C 16.746094 19.460938 16.742188 19.304688 16.742188 19.144531 C 16.742188 18.992188 16.738281 18.839844 16.734375 18.6875 C 16.734375 18.617188 16.734375 18.617188 16.734375 18.542969 C 16.726562 18.269531 16.691406 18.125 16.511719 17.921875 C 16.519531 17.738281 16.550781 17.632812 16.65625 17.484375 C 16.808594 17.378906 16.90625 17.386719 17.089844 17.40625 Z M 17.601562 21.761719 C 17.621094 21.925781 17.640625 22.050781 17.742188 22.1875 C 17.894531 22.300781 17.996094 22.292969 18.1875 22.285156 C 18.246094 22.28125 18.304688 22.28125 18.363281 22.277344 C 18.429688 22.277344 18.429688 22.277344 18.496094 22.273438 C 18.496094 22.230469 18.496094 22.1875 18.496094 22.144531 C 18.371094 22.078125 18.246094 22.015625 18.121094 21.953125 C 18.050781 21.917969 17.980469 21.878906 17.910156 21.84375 C 17.742188 21.75 17.742188 21.75 17.601562 21.761719 Z M 17.601562 21.761719 "/>
<path style=" stroke:none;fill-rule:nonzero;fill:rgb(23.921569%,23.921569%,23.921569%);fill-opacity:1;" d="M 17.089844 17.40625 C 17.152344 17.449219 17.214844 17.492188 17.28125 17.535156 C 17.3125 17.882812 17.3125 17.882812 17.28125 18.046875 C 17.25 18.074219 17.21875 18.097656 17.183594 18.125 C 16.980469 18.367188 17.050781 18.75 17.050781 19.050781 C 17.050781 19.183594 17.046875 19.316406 17.042969 19.449219 C 17.03125 19.980469 17.03125 19.980469 17.273438 20.429688 C 17.324219 20.472656 17.324219 20.472656 17.375 20.519531 C 17.488281 20.621094 17.539062 20.726562 17.601562 20.863281 C 17.742188 20.570312 17.753906 20.300781 17.769531 19.980469 C 17.769531 19.929688 17.773438 19.878906 17.777344 19.828125 C 17.78125 19.703125 17.785156 19.578125 17.792969 19.457031 C 17.835938 19.457031 17.875 19.457031 17.921875 19.457031 C 17.921875 19.496094 17.921875 19.539062 17.925781 19.582031 C 17.933594 19.769531 17.941406 19.957031 17.949219 20.144531 C 17.949219 20.210938 17.953125 20.273438 17.957031 20.339844 C 17.957031 20.402344 17.960938 20.464844 17.964844 20.53125 C 17.964844 20.589844 17.96875 20.644531 17.972656 20.707031 C 17.984375 20.851562 18.007812 20.980469 18.046875 21.121094 C 18.089844 21.121094 18.132812 21.121094 18.175781 21.121094 C 18.175781 21.164062 18.175781 21.203125 18.175781 21.246094 C 18.21875 21.265625 18.261719 21.28125 18.304688 21.296875 C 18.539062 21.394531 18.765625 21.507812 18.992188 21.625 C 19.589844 21.925781 20.15625 22.171875 20.804688 22.339844 C 20.992188 22.398438 20.992188 22.398438 21.121094 22.527344 C 21.128906 22.703125 21.132812 22.871094 21.128906 23.046875 C 21.128906 23.097656 21.125 23.144531 21.125 23.195312 C 21.125 23.3125 21.121094 23.433594 21.121094 23.550781 C 21.097656 23.550781 21.078125 23.550781 21.054688 23.550781 C 21.023438 23.078125 21.023438 23.078125 20.992188 22.59375 C 20.929688 22.59375 20.867188 22.59375 20.800781 22.59375 C 20.757812 22.59375 20.714844 22.59375 20.671875 22.59375 C 20.671875 22.527344 20.671875 22.464844 20.671875 22.398438 C 20.609375 22.398438 20.546875 22.398438 20.480469 22.398438 C 20.457031 22.503906 20.4375 22.609375 20.414062 22.71875 C 20.207031 22.722656 19.996094 22.722656 19.785156 22.722656 C 19.726562 22.722656 19.667969 22.726562 19.605469 22.726562 C 19.210938 22.726562 18.824219 22.703125 18.433594 22.65625 C 18.433594 22.59375 18.433594 22.527344 18.433594 22.464844 C 18.75 22.433594 18.75 22.433594 19.070312 22.398438 C 18.984375 22.402344 18.898438 22.402344 18.808594 22.40625 C 17.898438 22.40625 17.898438 22.40625 17.613281 22.210938 C 17.5 22.066406 17.417969 21.929688 17.34375 21.761719 C 17.320312 21.71875 17.296875 21.675781 17.273438 21.636719 C 17.203125 21.46875 17.199219 21.332031 17.195312 21.152344 C 17.179688 20.859375 17.179688 20.859375 16.992188 20.636719 C 16.9375 20.605469 16.886719 20.574219 16.832031 20.542969 C 16.734375 20.347656 16.757812 20.140625 16.753906 19.921875 C 16.753906 19.820312 16.75 19.722656 16.75 19.621094 C 16.746094 19.460938 16.742188 19.304688 16.742188 19.144531 C 16.742188 18.992188 16.738281 18.839844 16.734375 18.6875 C 16.734375 18.640625 16.734375 18.59375 16.734375 18.542969 C 16.726562 18.269531 16.691406 18.125 16.511719 17.921875 C 16.519531 17.738281 16.550781 17.632812 16.65625 17.484375 C 16.808594 17.378906 16.90625 17.386719 17.089844 17.40625 Z M 17.601562 21.761719 C 17.621094 21.925781 17.640625 22.050781 17.742188 22.1875 C 17.894531 22.300781 17.996094 22.292969 18.1875 22.285156 C 18.246094 22.28125 18.304688 22.28125 18.363281 22.277344 C 18.429688 22.277344 18.429688 22.277344 18.496094 22.273438 C 18.496094 22.230469 18.496094 22.1875 18.496094 22.144531 C 18.371094 22.078125 18.246094 22.015625 18.121094 21.953125 C 18.050781 21.917969 17.980469 21.878906 17.910156 21.84375 C 17.742188 21.75 17.742188 21.75 17.601562 21.761719 Z M 17.601562 21.761719 "/>
<path style=" stroke:none;fill-rule:nonzero;fill:rgb(20%,20%,20%);fill-opacity:1;" d="M 18.433594 18.6875 C 18.8125 18.761719 19.160156 18.863281 19.519531 19.007812 C 19.5625 18.964844 19.605469 18.921875 19.648438 18.878906 C 19.742188 18.96875 19.742188 18.96875 19.839844 19.070312 C 19.839844 19.113281 19.839844 19.15625 19.839844 19.199219 C 19.882812 19.199219 19.925781 19.199219 19.96875 19.199219 C 20.074219 19.363281 20.097656 19.449219 20.085938 19.648438 C 20.03125 19.84375 19.964844 19.941406 19.839844 20.097656 C 19.886719 20.125 19.929688 20.15625 19.976562 20.1875 C 20.035156 20.226562 20.09375 20.265625 20.15625 20.308594 C 20.214844 20.347656 20.273438 20.386719 20.332031 20.425781 C 20.480469 20.542969 20.480469 20.542969 20.542969 20.734375 C 20.585938 20.734375 20.628906 20.734375 20.671875 20.734375 C 20.828125 21.101562 20.902344 21.363281 20.863281 21.761719 C 20.742188 22.050781 20.742188 22.050781 20.558594 22.128906 C 20.359375 22.148438 20.242188 22.082031 20.0625 21.992188 C 19.863281 21.890625 19.675781 21.804688 19.457031 21.761719 C 19.457031 21.71875 19.457031 21.675781 19.457031 21.632812 C 19.402344 21.625 19.347656 21.617188 19.292969 21.613281 C 18.859375 21.523438 18.5625 21.347656 18.238281 21.054688 C 18.261719 21.015625 18.28125 20.972656 18.304688 20.929688 C 18.386719 21.011719 18.472656 21.097656 18.558594 21.183594 C 18.816406 21.097656 18.949219 20.992188 19.136719 20.800781 C 19.179688 20.800781 19.21875 20.800781 19.265625 20.800781 C 19.285156 20.757812 19.304688 20.714844 19.328125 20.671875 C 19.347656 20.734375 19.371094 20.796875 19.390625 20.863281 C 19.457031 20.832031 19.457031 20.832031 19.519531 20.800781 C 19.238281 20.535156 18.988281 20.359375 18.625 20.222656 C 18.644531 20.183594 18.667969 20.140625 18.6875 20.097656 C 19.363281 20.074219 19.363281 20.074219 19.648438 20.222656 C 19.691406 20.011719 19.734375 19.800781 19.777344 19.585938 C 19.484375 19.332031 19.167969 19.167969 18.828125 18.996094 C 18.503906 18.828125 18.503906 18.828125 18.433594 18.6875 Z M 18.433594 18.6875 "/>
<path style=" stroke:none;fill-rule:nonzero;fill:rgb(93.725491%,93.725491%,93.725491%);fill-opacity:1;" d="M 10.753906 22.59375 C 10.773438 22.59375 10.792969 22.59375 10.816406 22.59375 C 10.792969 22.867188 10.773438 23.140625 10.753906 23.425781 C 10.414062 23.507812 10.074219 23.59375 9.726562 23.679688 C 9.726562 23.722656 9.726562 23.765625 9.726562 23.808594 C 11.722656 24.253906 13.738281 24.210938 15.773438 24.203125 C 16.050781 24.203125 16.332031 24.203125 16.613281 24.203125 C 16.882812 24.203125 17.15625 24.203125 17.425781 24.203125 C 17.554688 24.203125 17.683594 24.203125 17.8125 24.203125 C 17.992188 24.203125 18.167969 24.203125 18.347656 24.203125 C 18.425781 24.203125 18.425781 24.203125 18.507812 24.203125 C 18.804688 24.199219 19.09375 24.179688 19.390625 24.140625 C 19.605469 24.117188 19.820312 24.121094 20.035156 24.125 C 20.160156 24.125 20.160156 24.125 20.289062 24.125 C 20.351562 24.125 20.414062 24.128906 20.480469 24.128906 C 20.480469 24.148438 20.480469 24.171875 20.480469 24.191406 C 19.078125 24.457031 17.597656 24.40625 16.175781 24.402344 C 15.957031 24.402344 15.734375 24.40625 15.515625 24.40625 C 14.332031 24.410156 13.15625 24.394531 11.976562 24.292969 C 11.929688 24.289062 11.882812 24.285156 11.832031 24.28125 C 11.34375 24.242188 10.859375 24.1875 10.375 24.085938 C 10.191406 24.054688 10.039062 24.089844 9.855469 24.128906 C 9.117188 24.195312 8.316406 24.042969 7.617188 23.808594 C 7.636719 23.703125 7.660156 23.597656 7.679688 23.488281 C 8.570312 23.257812 9.445312 23.09375 10.359375 22.996094 C 10.507812 22.976562 10.507812 22.976562 10.6875 22.910156 C 10.710938 22.804688 10.730469 22.699219 10.753906 22.59375 Z M 10.753906 22.59375 "/>
<path style=" stroke:none;fill-rule:nonzero;fill:rgb(35.294119%,35.294119%,35.294119%);fill-opacity:1;" d="M 17.792969 7.039062 C 17.792969 7.082031 17.792969 7.125 17.792969 7.167969 C 17.828125 7.183594 17.863281 7.195312 17.898438 7.210938 C 18.398438 7.496094 18.699219 8.046875 18.878906 8.574219 C 18.894531 8.804688 18.894531 8.804688 18.878906 8.960938 C 18.796875 8.960938 18.710938 8.960938 18.625 8.960938 C 18.617188 9.015625 18.609375 9.066406 18.601562 9.125 C 18.457031 10.164062 18.457031 10.164062 18.164062 10.433594 C 18.125 10.453125 18.085938 10.472656 18.046875 10.496094 C 18.058594 10.433594 18.066406 10.371094 18.078125 10.304688 C 18.195312 9.476562 18.160156 8.757812 17.683594 8.046875 C 17.339844 7.621094 16.917969 7.398438 16.386719 7.285156 C 16.257812 7.230469 16.257812 7.230469 16.164062 7.121094 C 16.128906 6.976562 16.128906 6.976562 16.257812 6.59375 C 15.898438 6.59375 15.539062 6.59375 15.167969 6.59375 C 15.167969 6.570312 15.167969 6.550781 15.167969 6.527344 C 16.109375 6.3125 16.988281 6.53125 17.792969 7.039062 Z M 17.792969 7.039062 "/>
<path style=" stroke:none;fill-rule:nonzero;fill:rgb(13.333334%,13.333334%,13.333334%);fill-opacity:1;" d="M 19.121094 19.089844 C 19.210938 19.136719 19.210938 19.136719 19.304688 19.1875 C 19.363281 19.21875 19.425781 19.253906 19.488281 19.285156 C 19.652344 19.394531 19.746094 19.472656 19.839844 19.648438 C 19.832031 19.8125 19.832031 19.8125 19.789062 19.984375 C 19.769531 20.070312 19.769531 20.070312 19.746094 20.15625 C 19.734375 20.199219 19.722656 20.242188 19.710938 20.289062 C 19.660156 20.265625 19.613281 20.246094 19.558594 20.222656 C 19.265625 20.140625 18.992188 20.148438 18.6875 20.160156 C 18.730469 20.183594 18.773438 20.207031 18.820312 20.234375 C 19.386719 20.558594 19.386719 20.558594 19.585938 20.863281 C 19.519531 20.863281 19.457031 20.863281 19.390625 20.863281 C 19.371094 20.820312 19.351562 20.78125 19.328125 20.734375 C 19.265625 20.757812 19.203125 20.777344 19.136719 20.800781 C 19.117188 20.839844 19.097656 20.878906 19.078125 20.921875 C 18.980469 21.105469 18.878906 21.167969 18.6875 21.246094 C 18.558594 21.210938 18.558594 21.210938 18.433594 21.121094 C 18.378906 21.089844 18.320312 21.0625 18.265625 21.03125 C 18.023438 20.765625 18.078125 20.488281 18.09375 20.144531 C 18.09375 20.078125 18.09375 20.011719 18.097656 19.945312 C 18.101562 19.78125 18.105469 19.617188 18.113281 19.457031 C 18.152344 19.457031 18.195312 19.457031 18.238281 19.457031 C 18.238281 19.414062 18.238281 19.371094 18.238281 19.328125 C 18.28125 19.308594 18.324219 19.285156 18.367188 19.265625 C 18.378906 19.222656 18.386719 19.179688 18.394531 19.136719 C 18.40625 19.09375 18.417969 19.050781 18.433594 19.007812 C 18.703125 18.917969 18.863281 18.972656 19.121094 19.089844 Z M 19.121094 19.089844 "/>
<path style=" stroke:none;fill-rule:nonzero;fill:rgb(91.764706%,91.764706%,91.764706%);fill-opacity:1;" d="M 15.332031 17.441406 C 15.488281 17.472656 15.488281 17.472656 15.609375 17.570312 C 15.710938 17.792969 15.667969 17.945312 15.617188 18.175781 C 15.59375 18.195312 15.574219 18.21875 15.550781 18.238281 C 15.546875 18.390625 15.542969 18.539062 15.546875 18.691406 C 15.542969 18.785156 15.542969 18.878906 15.542969 18.972656 C 15.539062 19.117188 15.539062 19.265625 15.539062 19.414062 C 15.542969 20.386719 15.542969 20.386719 15.191406 20.765625 C 15.066406 20.90625 15.050781 21.039062 15.03125 21.226562 C 14.96875 21.675781 14.785156 21.847656 14.433594 22.113281 C 14.085938 22.347656 13.714844 22.539062 13.3125 22.65625 C 13.121094 22.59375 13.121094 22.59375 12.929688 22.464844 C 13.03125 22.414062 13.03125 22.414062 13.136719 22.359375 C 13.230469 22.316406 13.324219 22.269531 13.414062 22.222656 C 13.460938 22.203125 13.507812 22.179688 13.554688 22.15625 C 14.199219 21.84375 14.199219 21.84375 14.65625 21.3125 C 14.683594 21.148438 14.695312 20.988281 14.703125 20.820312 C 14.726562 20.625 14.789062 20.503906 14.910156 20.351562 C 14.976562 20.308594 15.039062 20.265625 15.105469 20.222656 C 15.132812 20.023438 15.132812 20.023438 15.128906 19.785156 C 15.128906 19.71875 15.128906 19.71875 15.128906 19.652344 C 15.128906 19.5625 15.128906 19.46875 15.128906 19.378906 C 15.128906 19.238281 15.128906 19.097656 15.128906 18.957031 C 15.128906 18.867188 15.128906 18.777344 15.128906 18.6875 C 15.128906 18.605469 15.128906 18.527344 15.128906 18.441406 C 15.101562 18.226562 15.074219 18.179688 14.910156 18.046875 C 14.882812 17.890625 14.882812 17.890625 14.910156 17.726562 C 15.042969 17.550781 15.117188 17.480469 15.332031 17.441406 Z M 13.695312 22.273438 C 13.652344 22.3125 13.613281 22.355469 13.566406 22.398438 C 13.652344 22.398438 13.738281 22.398438 13.824219 22.398438 C 13.824219 22.359375 13.824219 22.316406 13.824219 22.273438 C 13.78125 22.273438 13.738281 22.273438 13.695312 22.273438 Z M 13.695312 22.273438 "/>
<path style=" stroke:none;fill-rule:nonzero;fill:rgb(31.37255%,31.37255%,31.37255%);fill-opacity:1;" d="M 17.125 13.4375 C 17.195312 13.4375 17.269531 13.4375 17.34375 13.441406 C 17.347656 13.5 17.351562 13.558594 17.351562 13.621094 C 17.445312 15.878906 17.445312 15.878906 18.0625 18.035156 C 18.113281 18.175781 18.113281 18.175781 18.046875 18.367188 C 16.890625 17.046875 16.796875 15.320312 16.820312 13.640625 C 16.839844 13.40625 16.882812 13.441406 17.125 13.4375 Z M 17.125 13.4375 "/>
<path style=" stroke:none;fill-rule:nonzero;fill:rgb(96.078432%,96.078432%,96.078432%);fill-opacity:1;" d="M 16.136719 16.007812 C 16.320312 16.0625 16.320312 16.0625 16.449219 16.191406 C 16.46875 16.410156 16.46875 16.410156 16.449219 16.640625 C 16.417969 16.667969 16.382812 16.695312 16.351562 16.722656 C 16.203125 16.890625 16.234375 17.03125 16.234375 17.246094 C 16.234375 17.289062 16.234375 17.332031 16.234375 17.375 C 16.234375 17.511719 16.234375 17.652344 16.234375 17.789062 C 16.234375 17.886719 16.234375 17.980469 16.234375 18.078125 C 16.234375 18.28125 16.238281 18.484375 16.238281 18.683594 C 16.238281 18.941406 16.242188 19.203125 16.242188 19.460938 C 16.242188 19.660156 16.242188 19.859375 16.242188 20.058594 C 16.242188 20.152344 16.242188 20.246094 16.242188 20.34375 C 16.242188 20.476562 16.246094 20.609375 16.246094 20.742188 C 16.246094 20.820312 16.246094 20.894531 16.246094 20.972656 C 16.25 21.183594 16.25 21.183594 16.292969 21.394531 C 16.351562 21.757812 16.09375 22.078125 15.890625 22.363281 C 15.679688 22.625 15.679688 22.625 15.550781 22.71875 C 15.378906 22.734375 15.378906 22.734375 15.230469 22.71875 C 15.34375 22.480469 15.488281 22.277344 15.644531 22.066406 C 15.964844 21.480469 15.964844 20.871094 15.96875 20.21875 C 15.96875 20.121094 15.972656 20.023438 15.972656 19.925781 C 15.976562 19.667969 15.976562 19.414062 15.980469 19.15625 C 15.980469 18.894531 15.984375 18.632812 15.988281 18.371094 C 15.992188 17.859375 15.996094 17.34375 16 16.832031 C 15.9375 16.8125 15.875 16.789062 15.808594 16.769531 C 15.667969 16.558594 15.644531 16.496094 15.679688 16.257812 C 15.824219 16.046875 15.878906 15.996094 16.136719 16.007812 Z M 15.9375 16.191406 C 15.9375 16.253906 15.9375 16.320312 15.9375 16.382812 C 16 16.382812 16.0625 16.382812 16.128906 16.382812 C 16.128906 16.320312 16.128906 16.257812 16.128906 16.191406 C 16.066406 16.191406 16 16.191406 15.9375 16.191406 Z M 15.9375 16.191406 "/>
<path style=" stroke:none;fill-rule:nonzero;fill:rgb(95.294118%,95.294118%,95.294118%);fill-opacity:1;" d="M 21.121094 22.65625 C 21.140625 22.65625 21.164062 22.65625 21.183594 22.65625 C 21.207031 22.761719 21.226562 22.867188 21.246094 22.976562 C 21.320312 22.984375 21.390625 22.988281 21.464844 22.996094 C 22.332031 23.085938 23.171875 23.214844 24 23.488281 C 24 23.574219 24 23.65625 24 23.742188 C 23.453125 24.023438 22.945312 24.035156 22.355469 23.894531 C 22.136719 23.859375 21.964844 23.929688 21.761719 24 C 21.609375 24.003906 21.460938 24.007812 21.3125 24 C 21.3125 23.980469 21.3125 23.957031 21.3125 23.9375 C 21.691406 23.839844 21.691406 23.839844 22.078125 23.742188 C 21.738281 23.574219 21.503906 23.53125 21.121094 23.550781 C 21.121094 23.257812 21.121094 22.960938 21.121094 22.65625 Z M 21.121094 22.65625 "/>
<path style=" stroke:none;fill-rule:nonzero;fill:rgb(94.509804%,94.509804%,94.509804%);fill-opacity:1;" d="M 17.089844 17.40625 C 17.152344 17.449219 17.214844 17.492188 17.28125 17.535156 C 17.3125 17.882812 17.3125 17.882812 17.28125 18.046875 C 17.25 18.074219 17.21875 18.097656 17.183594 18.125 C 16.980469 18.367188 17.050781 18.75 17.050781 19.050781 C 17.050781 19.183594 17.046875 19.316406 17.042969 19.449219 C 17.027344 19.976562 17.027344 19.976562 17.277344 20.417969 C 17.3125 20.449219 17.347656 20.484375 17.382812 20.515625 C 17.527344 20.667969 17.527344 20.828125 17.539062 21.03125 C 17.570312 21.375 17.570312 21.375 17.765625 21.644531 C 17.816406 21.683594 17.867188 21.71875 17.921875 21.761719 C 17.953125 21.824219 17.953125 21.824219 17.984375 21.886719 C 17.855469 21.847656 17.730469 21.804688 17.601562 21.761719 C 17.578125 21.84375 17.558594 21.929688 17.535156 22.015625 C 17.3125 21.726562 17.199219 21.503906 17.183594 21.136719 C 17.175781 20.851562 17.175781 20.851562 16.992188 20.636719 C 16.9375 20.605469 16.886719 20.574219 16.832031 20.542969 C 16.734375 20.347656 16.757812 20.140625 16.753906 19.921875 C 16.753906 19.820312 16.75 19.722656 16.75 19.621094 C 16.746094 19.460938 16.742188 19.304688 16.742188 19.144531 C 16.742188 18.992188 16.738281 18.839844 16.734375 18.6875 C 16.734375 18.640625 16.734375 18.59375 16.734375 18.542969 C 16.726562 18.269531 16.691406 18.125 16.511719 17.921875 C 16.519531 17.738281 16.550781 17.632812 16.65625 17.484375 C 16.808594 17.378906 16.90625 17.386719 17.089844 17.40625 Z M 17.089844 17.40625 "/>
<path style=" stroke:none;fill-rule:nonzero;fill:rgb(79.215688%,79.215688%,79.215688%);fill-opacity:1;" d="M 17.375 7.238281 C 17.792969 7.386719 18.078125 7.75 18.304688 8.117188 C 18.476562 8.488281 18.519531 8.839844 18.515625 9.242188 C 18.515625 9.316406 18.515625 9.316406 18.515625 9.390625 C 18.507812 9.734375 18.472656 10 18.304688 10.304688 C 18.164062 10.433594 18.164062 10.433594 18.046875 10.496094 C 18.058594 10.433594 18.066406 10.371094 18.078125 10.304688 C 18.195312 9.476562 18.164062 8.753906 17.679688 8.046875 C 17.476562 7.792969 17.230469 7.605469 16.960938 7.425781 C 17.105469 7.289062 17.171875 7.230469 17.375 7.238281 Z M 17.375 7.238281 "/>
<path style=" stroke:none;fill-rule:nonzero;fill:rgb(73.725492%,74.117649%,73.725492%);fill-opacity:1;" d="M 17.34375 15.167969 C 17.363281 15.167969 17.386719 15.167969 17.40625 15.167969 C 17.421875 15.277344 17.421875 15.277344 17.4375 15.386719 C 17.523438 15.964844 17.625 16.535156 17.761719 17.105469 C 17.773438 17.160156 17.785156 17.214844 17.800781 17.273438 C 17.859375 17.519531 17.921875 17.75 18.03125 17.980469 C 18.113281 18.175781 18.113281 18.175781 18.046875 18.367188 C 17.542969 17.789062 17.082031 17.070312 17.058594 16.277344 C 17.089844 16.0625 17.089844 16.0625 17.214844 15.871094 C 17.246094 15.75 17.269531 15.628906 17.289062 15.507812 C 17.296875 15.445312 17.308594 15.378906 17.320312 15.316406 C 17.328125 15.265625 17.335938 15.21875 17.34375 15.167969 Z M 17.34375 15.167969 "/>
<path style=" stroke:none;fill-rule:nonzero;fill:rgb(43.529412%,43.529412%,43.529412%);fill-opacity:1;" d="M 12.929688 18.046875 C 12.929688 18.277344 12.917969 18.425781 12.777344 18.609375 C 12.671875 18.6875 12.671875 18.6875 12.480469 18.6875 C 12.460938 18.726562 12.445312 18.765625 12.429688 18.804688 C 12.351562 18.945312 12.351562 18.945312 12.257812 19.035156 C 12.132812 19.164062 12.089844 19.292969 12.03125 19.457031 C 12.09375 19.476562 12.160156 19.5 12.222656 19.519531 C 12.203125 19.585938 12.179688 19.65625 12.15625 19.722656 C 12.097656 19.953125 12.09375 20.066406 12.160156 20.289062 C 12.070312 20.332031 12.070312 20.332031 11.976562 20.375 C 11.777344 20.46875 11.777344 20.46875 11.648438 20.609375 C 11.554688 20.640625 11.554688 20.640625 11.457031 20.671875 C 11.410156 20.800781 11.367188 20.925781 11.328125 21.054688 C 11.285156 21.097656 11.242188 21.140625 11.199219 21.183594 C 11.171875 21.355469 11.171875 21.355469 11.160156 21.542969 C 11.15625 21.609375 11.152344 21.671875 11.144531 21.738281 C 11.140625 21.789062 11.140625 21.835938 11.136719 21.886719 C 11.113281 21.886719 11.09375 21.886719 11.070312 21.886719 C 11.03125 21.390625 11.019531 21.007812 11.332031 20.605469 C 11.539062 20.394531 11.777344 20.242188 12.03125 20.097656 C 11.988281 20.039062 11.949219 19.984375 11.902344 19.925781 C 11.769531 19.703125 11.738281 19.640625 11.777344 19.390625 C 11.898438 19.226562 11.898438 19.226562 12.058594 19.058594 C 12.261719 18.859375 12.261719 18.859375 12.414062 18.625 C 12.457031 18.625 12.5 18.625 12.542969 18.625 C 12.558594 18.589844 12.574219 18.550781 12.59375 18.515625 C 12.6875 18.34375 12.800781 18.199219 12.929688 18.046875 Z M 12.929688 18.046875 "/>
<path style=" stroke:none;fill-rule:nonzero;fill:rgb(92.54902%,92.54902%,92.54902%);fill-opacity:1;" d="M 14.335938 18.816406 C 14.378906 18.816406 14.421875 18.816406 14.464844 18.816406 C 14.542969 19.238281 14.542969 19.238281 14.398438 19.457031 C 14.359375 19.457031 14.316406 19.457031 14.273438 19.457031 C 14.273438 19.5 14.273438 19.542969 14.277344 19.585938 C 14.28125 19.78125 14.285156 19.972656 14.289062 20.167969 C 14.289062 20.234375 14.292969 20.300781 14.292969 20.371094 C 14.300781 20.761719 14.289062 21.007812 14.015625 21.3125 C 13.898438 21.421875 13.898438 21.421875 13.789062 21.5 C 13.734375 21.539062 13.734375 21.539062 13.675781 21.582031 C 13.566406 21.632812 13.566406 21.632812 13.375 21.566406 C 13.566406 21.441406 13.757812 21.316406 13.953125 21.183594 C 13.910156 21.183594 13.867188 21.183594 13.824219 21.183594 C 13.761719 21.183594 13.699219 21.183594 13.632812 21.183594 C 13.671875 21.132812 13.714844 21.082031 13.757812 21.03125 C 13.929688 20.8125 13.960938 20.714844 13.957031 20.445312 C 13.957031 20.386719 13.957031 20.328125 13.957031 20.269531 C 13.957031 20.179688 13.957031 20.179688 13.957031 20.089844 C 13.957031 20.027344 13.957031 19.96875 13.957031 19.90625 C 13.953125 19.753906 13.953125 19.605469 13.953125 19.457031 C 14.078125 19.414062 14.207031 19.371094 14.335938 19.328125 C 14.335938 19.160156 14.335938 18.988281 14.335938 18.816406 Z M 14.335938 18.816406 "/>
<path style=" stroke:none;fill-rule:nonzero;fill:rgb(89.019608%,89.019608%,89.019608%);fill-opacity:1;" d="M 17.375 7.238281 C 17.777344 7.382812 18.117188 7.753906 18.304688 8.128906 C 18.296875 8.308594 18.296875 8.308594 18.238281 8.449219 C 18.199219 8.46875 18.15625 8.492188 18.113281 8.511719 C 17.882812 8.433594 17.871094 8.386719 17.753906 8.183594 C 17.542969 7.851562 17.28125 7.644531 16.960938 7.425781 C 17.105469 7.289062 17.171875 7.230469 17.375 7.238281 Z M 17.375 7.238281 "/>
<path style=" stroke:none;fill-rule:nonzero;fill:rgb(20.392157%,20.392157%,20.392157%);fill-opacity:1;" d="M 18.878906 18.046875 C 19.070312 18.226562 19.226562 18.378906 19.328125 18.625 C 19.371094 18.625 19.414062 18.625 19.457031 18.625 C 19.585938 18.816406 19.585938 18.816406 19.558594 18.957031 C 19.539062 19.011719 19.539062 19.011719 19.519531 19.070312 C 19.363281 19.023438 19.207031 18.972656 19.050781 18.921875 C 18.984375 18.898438 18.984375 18.898438 18.917969 18.878906 C 18.714844 18.808594 18.546875 18.746094 18.367188 18.625 C 18.390625 18.496094 18.410156 18.371094 18.433594 18.238281 C 18.523438 18.210938 18.523438 18.210938 18.621094 18.179688 C 18.804688 18.132812 18.804688 18.132812 18.878906 18.046875 Z M 18.878906 18.046875 "/>
<path style=" stroke:none;fill-rule:nonzero;fill:rgb(53.333336%,53.333336%,53.333336%);fill-opacity:1;" d="M 17.28125 14.207031 C 17.300781 14.207031 17.320312 14.207031 17.34375 14.207031 C 17.429688 14.96875 17.390625 15.601562 17.089844 16.320312 C 17.066406 16.320312 17.046875 16.320312 17.023438 16.320312 C 16.882812 15.78125 16.882812 15.273438 16.894531 14.71875 C 16.980469 14.699219 17.066406 14.679688 17.152344 14.65625 C 17.195312 14.507812 17.238281 14.359375 17.28125 14.207031 Z M 17.28125 14.207031 "/>
<path style=" stroke:none;fill-rule:nonzero;fill:rgb(48.235294%,48.235294%,48.235294%);fill-opacity:1;" d="M 17.089844 6.65625 C 16.839844 6.71875 16.839844 6.71875 16.769531 6.71875 C 16.703125 6.816406 16.703125 6.816406 16.640625 6.910156 C 16.988281 7.039062 16.988281 7.039062 17.34375 7.167969 C 17.089844 7.359375 17.089844 7.359375 16.894531 7.425781 C 16.742188 7.398438 16.742188 7.398438 16.570312 7.347656 C 16.515625 7.332031 16.460938 7.316406 16.402344 7.300781 C 16.257812 7.230469 16.257812 7.230469 16.164062 7.121094 C 16.128906 6.976562 16.128906 6.976562 16.257812 6.59375 C 15.898438 6.59375 15.539062 6.59375 15.167969 6.59375 C 15.167969 6.570312 15.167969 6.550781 15.167969 6.527344 C 15.820312 6.375 16.460938 6.441406 17.089844 6.65625 Z M 17.089844 6.65625 "/>
<path style=" stroke:none;fill-rule:nonzero;fill:rgb(85.882354%,85.882354%,85.882354%);fill-opacity:1;" d="M 21.773438 23.53125 C 21.898438 23.578125 22.023438 23.628906 22.144531 23.679688 C 22.078125 23.808594 22.078125 23.808594 21.90625 23.878906 C 21.699219 23.933594 21.527344 23.945312 21.3125 23.9375 C 21.3125 23.976562 21.3125 24.019531 21.3125 24.0625 C 21.050781 24.125 20.808594 24.132812 20.542969 24.128906 C 20.523438 24.023438 20.5 23.917969 20.480469 23.808594 C 20.542969 23.808594 20.605469 23.808594 20.671875 23.808594 C 20.671875 23.851562 20.671875 23.890625 20.671875 23.9375 C 20.714844 23.9375 20.757812 23.9375 20.800781 23.9375 C 20.84375 23.851562 20.882812 23.765625 20.929688 23.679688 C 20.96875 23.679688 21.011719 23.679688 21.054688 23.679688 C 21.054688 23.636719 21.054688 23.59375 21.054688 23.550781 C 21.285156 23.4375 21.53125 23.457031 21.773438 23.53125 Z M 21.773438 23.53125 "/>
<path style=" stroke:none;fill-rule:nonzero;fill:rgb(86.274511%,86.274511%,86.274511%);fill-opacity:1;" d="M 18.6875 20.097656 C 19.132812 20.0625 19.46875 20.089844 19.839844 20.351562 C 20.054688 20.566406 20.097656 20.621094 20.097656 20.929688 C 19.699219 20.917969 19.515625 20.777344 19.214844 20.527344 C 19.027344 20.378906 18.847656 20.304688 18.625 20.222656 C 18.644531 20.183594 18.667969 20.140625 18.6875 20.097656 Z M 18.6875 20.097656 "/>
<path style=" stroke:none;fill-rule:nonzero;fill:rgb(13.725491%,13.725491%,13.725491%);fill-opacity:1;" d="M 12.609375 20.160156 C 12.429688 20.296875 12.25 20.421875 12.0625 20.546875 C 12.015625 20.582031 11.96875 20.613281 11.917969 20.644531 C 11.777344 20.734375 11.777344 20.734375 11.632812 20.796875 C 11.511719 20.855469 11.511719 20.855469 11.472656 20.972656 C 11.449219 21.175781 11.433594 21.378906 11.421875 21.585938 C 11.410156 21.707031 11.410156 21.707031 11.402344 21.828125 C 11.398438 21.890625 11.394531 21.953125 11.390625 22.015625 C 11.328125 22.039062 11.265625 22.058594 11.199219 22.078125 C 11.082031 21.960938 11.125 21.765625 11.125 21.609375 C 11.125 21.535156 11.121094 21.460938 11.121094 21.382812 C 11.136719 21.183594 11.136719 21.183594 11.265625 20.992188 C 11.285156 20.933594 11.304688 20.875 11.324219 20.8125 C 11.527344 20.5 11.832031 20.382812 12.160156 20.222656 C 12.316406 20.144531 12.433594 20.15625 12.609375 20.160156 Z M 12.609375 20.160156 "/>
<path style=" stroke:none;fill-rule:nonzero;fill:rgb(69.01961%,69.01961%,69.01961%);fill-opacity:1;" d="M 17.34375 15.167969 C 17.363281 15.167969 17.386719 15.167969 17.40625 15.167969 C 17.441406 15.363281 17.476562 15.558594 17.507812 15.753906 C 17.519531 15.808594 17.527344 15.863281 17.539062 15.917969 C 17.585938 16.21875 17.617188 16.46875 17.535156 16.769531 C 17.445312 16.886719 17.445312 16.886719 17.34375 16.960938 C 17.300781 16.960938 17.257812 16.960938 17.214844 16.960938 C 17.089844 16.644531 17.066406 16.398438 17.089844 16.0625 C 17.128906 16 17.171875 15.9375 17.214844 15.871094 C 17.246094 15.75 17.269531 15.628906 17.289062 15.507812 C 17.296875 15.445312 17.308594 15.378906 17.320312 15.316406 C 17.328125 15.265625 17.335938 15.21875 17.34375 15.167969 Z M 17.34375 15.167969 "/>
<path style=" stroke:none;fill-rule:nonzero;fill:rgb(30.19608%,30.19608%,30.19608%);fill-opacity:1;" d="M 14.464844 12.03125 C 14.464844 12.054688 14.464844 12.074219 14.464844 12.097656 C 14.335938 12.097656 14.210938 12.097656 14.078125 12.097656 C 14.078125 12.136719 14.078125 12.179688 14.078125 12.222656 C 14.121094 12.246094 14.164062 12.265625 14.207031 12.289062 C 14.113281 12.382812 14.019531 12.382812 13.890625 12.40625 C 13.613281 12.464844 13.347656 12.546875 13.078125 12.640625 C 12.902344 12.675781 12.78125 12.644531 12.609375 12.609375 C 12.542969 12.628906 12.480469 12.648438 12.414062 12.671875 C 12.414062 12.628906 12.414062 12.585938 12.414062 12.542969 C 13.976562 11.867188 13.976562 11.867188 14.464844 12.03125 Z M 14.464844 12.03125 "/>
<path style=" stroke:none;fill-rule:nonzero;fill:rgb(77.254903%,77.254903%,77.254903%);fill-opacity:1;" d="M 18.433594 22.464844 C 18.726562 22.460938 19.019531 22.457031 19.3125 22.457031 C 19.394531 22.453125 19.480469 22.453125 19.566406 22.453125 C 19.644531 22.453125 19.722656 22.453125 19.808594 22.453125 C 19.878906 22.449219 19.953125 22.449219 20.03125 22.449219 C 20.21875 22.464844 20.324219 22.496094 20.480469 22.59375 C 20.457031 22.632812 20.4375 22.675781 20.414062 22.71875 C 20.207031 22.722656 19.996094 22.722656 19.785156 22.722656 C 19.695312 22.726562 19.695312 22.726562 19.605469 22.726562 C 19.210938 22.726562 18.824219 22.703125 18.433594 22.65625 C 18.433594 22.59375 18.433594 22.527344 18.433594 22.464844 Z M 18.433594 22.464844 "/>
<path style=" stroke:none;fill-rule:nonzero;fill:rgb(29.803923%,29.803923%,29.803923%);fill-opacity:1;" d="M 18.304688 7.617188 C 18.503906 7.800781 18.625 7.96875 18.734375 8.214844 C 18.777344 8.304688 18.777344 8.304688 18.820312 8.394531 C 18.886719 8.59375 18.890625 8.75 18.878906 8.960938 C 18.796875 8.960938 18.710938 8.960938 18.625 8.960938 C 18.601562 9.171875 18.582031 9.382812 18.558594 9.601562 C 18.539062 9.601562 18.519531 9.601562 18.496094 9.601562 C 18.492188 9.539062 18.488281 9.480469 18.484375 9.417969 C 18.453125 8.925781 18.453125 8.925781 18.390625 8.4375 C 18.367188 8.257812 18.367188 8.257812 18.433594 8.0625 C 18.394531 7.914062 18.351562 7.765625 18.304688 7.617188 Z M 18.304688 7.617188 "/>
<path style=" stroke:none;fill-rule:nonzero;fill:rgb(59.215689%,59.215689%,59.215689%);fill-opacity:1;" d="M 16.769531 12.097656 C 18.195312 12.140625 18.195312 12.140625 18.625 12.351562 C 18.738281 12.488281 18.738281 12.488281 18.816406 12.609375 C 18.75 12.59375 18.679688 12.582031 18.613281 12.570312 C 18 12.460938 17.386719 12.363281 16.769531 12.289062 C 16.769531 12.226562 16.769531 12.160156 16.769531 12.097656 Z M 16.769531 12.097656 "/>
<path style=" stroke:none;fill-rule:nonzero;fill:rgb(21.960784%,21.960784%,21.960784%);fill-opacity:1;" d="M 17.664062 7.230469 C 17.929688 7.261719 18.121094 7.285156 18.304688 7.488281 C 18.523438 7.976562 18.523438 7.976562 18.433594 8.257812 C 18.390625 8.257812 18.347656 8.257812 18.304688 8.257812 C 18.1875 8.101562 18.082031 7.9375 17.972656 7.773438 C 17.859375 7.621094 17.757812 7.527344 17.601562 7.425781 C 17.621094 7.359375 17.640625 7.296875 17.664062 7.230469 Z M 17.664062 7.230469 "/>
<path style=" stroke:none;fill-rule:nonzero;fill:rgb(46.27451%,46.27451%,46.27451%);fill-opacity:1;" d="M 18.433594 22.464844 C 18.433594 22.527344 18.433594 22.589844 18.433594 22.65625 C 18.644531 22.65625 18.855469 22.65625 19.070312 22.65625 C 19.070312 22.675781 19.070312 22.699219 19.070312 22.71875 C 18.574219 22.730469 18.082031 22.714844 17.585938 22.691406 C 17.523438 22.691406 17.464844 22.6875 17.402344 22.683594 C 17.058594 22.667969 16.722656 22.640625 16.382812 22.59375 C 16.382812 22.570312 16.382812 22.550781 16.382812 22.527344 C 17.066406 22.480469 17.746094 22.453125 18.433594 22.464844 Z M 18.433594 22.464844 "/>
<path style=" stroke:none;fill-rule:nonzero;fill:rgb(33.725491%,33.725491%,33.725491%);fill-opacity:1;" d="M 17.40625 11.96875 C 17.957031 12.035156 18.480469 12.125 19.007812 12.289062 C 19.007812 12.351562 19.007812 12.414062 19.007812 12.480469 C 18.945312 12.511719 18.945312 12.511719 18.878906 12.542969 C 18.859375 12.585938 18.835938 12.628906 18.816406 12.671875 C 18.789062 12.632812 18.765625 12.59375 18.742188 12.550781 C 18.445312 12.207031 17.824219 12.203125 17.394531 12.167969 C 17.355469 12.164062 17.320312 12.164062 17.28125 12.160156 C 17.320312 12.140625 17.363281 12.117188 17.40625 12.097656 C 17.40625 12.054688 17.40625 12.011719 17.40625 11.96875 Z M 17.40625 11.96875 "/>
<path style=" stroke:none;fill-rule:nonzero;fill:rgb(81.568629%,81.568629%,81.568629%);fill-opacity:1;" d="M 17.535156 7.296875 C 17.671875 7.394531 17.792969 7.5 17.921875 7.617188 C 17.8125 7.722656 17.707031 7.828125 17.601562 7.9375 C 17.527344 7.875 17.457031 7.816406 17.386719 7.757812 C 17.347656 7.722656 17.308594 7.6875 17.269531 7.65625 C 17.160156 7.558594 17.058594 7.460938 16.960938 7.359375 C 17.175781 7.222656 17.296875 7.210938 17.535156 7.296875 Z M 17.535156 7.296875 "/>
<path style=" stroke:none;fill-rule:nonzero;fill:rgb(70.980394%,70.980394%,70.980394%);fill-opacity:1;" d="M 18.433594 18.6875 C 18.8125 18.761719 19.160156 18.863281 19.519531 19.007812 C 19.5625 18.964844 19.605469 18.921875 19.648438 18.878906 C 19.710938 18.964844 19.773438 19.050781 19.839844 19.136719 C 19.777344 19.136719 19.714844 19.136719 19.648438 19.136719 C 19.710938 19.230469 19.710938 19.230469 19.777344 19.328125 C 19.585938 19.390625 19.585938 19.390625 19.464844 19.347656 C 19.417969 19.324219 19.375 19.300781 19.328125 19.277344 C 19.28125 19.25 19.234375 19.226562 19.183594 19.199219 C 19.132812 19.171875 19.082031 19.144531 19.03125 19.117188 C 18.980469 19.089844 18.929688 19.0625 18.878906 19.035156 C 18.503906 18.832031 18.503906 18.832031 18.433594 18.6875 Z M 18.433594 18.6875 "/>
<path style=" stroke:none;fill-rule:nonzero;fill:rgb(36.470589%,36.470589%,36.470589%);fill-opacity:1;" d="M 19.585938 19.070312 C 19.9375 19.164062 19.9375 19.164062 20.058594 19.3125 C 20.109375 19.507812 20.085938 19.644531 20.03125 19.839844 C 19.933594 19.992188 19.933594 19.992188 19.839844 20.097656 C 19.902344 20.160156 19.964844 20.222656 20.03125 20.289062 C 19.949219 20.265625 19.863281 20.246094 19.777344 20.222656 C 19.753906 20.265625 19.734375 20.308594 19.710938 20.351562 C 19.71875 20.296875 19.722656 20.246094 19.730469 20.191406 C 19.738281 20.121094 19.746094 20.050781 19.753906 19.980469 C 19.757812 19.910156 19.765625 19.84375 19.773438 19.769531 C 19.792969 19.570312 19.792969 19.570312 19.648438 19.390625 C 19.648438 19.328125 19.648438 19.265625 19.648438 19.199219 C 19.625 19.15625 19.605469 19.117188 19.585938 19.070312 Z M 19.585938 19.070312 "/>
<path style=" stroke:none;fill-rule:nonzero;fill:rgb(37.254903%,37.254903%,37.254903%);fill-opacity:1;" d="M 19.136719 12.414062 C 19.277344 12.441406 19.382812 12.472656 19.503906 12.550781 C 19.632812 12.746094 19.617188 12.890625 19.585938 13.121094 C 19.429688 13.324219 19.328125 13.421875 19.085938 13.492188 C 19.039062 13.496094 18.992188 13.5 18.945312 13.503906 C 18.984375 13.417969 19.027344 13.335938 19.070312 13.246094 C 19.113281 13.246094 19.15625 13.246094 19.199219 13.246094 C 19.277344 13.101562 19.277344 13.101562 19.328125 12.929688 C 19.273438 12.789062 19.273438 12.789062 19.199219 12.671875 C 19.222656 12.628906 19.242188 12.585938 19.265625 12.542969 C 19.222656 12.5 19.179688 12.460938 19.136719 12.414062 Z M 19.136719 12.414062 "/>
<path style=" stroke:none;fill-rule:nonzero;fill:rgb(36.470589%,36.470589%,36.470589%);fill-opacity:1;" d="M 19.96875 22.144531 C 20.136719 22.183594 20.304688 22.222656 20.472656 22.265625 C 20.519531 22.273438 20.566406 22.285156 20.617188 22.296875 C 20.976562 22.386719 20.976562 22.386719 21.121094 22.527344 C 21.128906 22.703125 21.132812 22.871094 21.128906 23.046875 C 21.128906 23.097656 21.125 23.144531 21.125 23.195312 C 21.125 23.3125 21.121094 23.433594 21.121094 23.550781 C 21.097656 23.550781 21.078125 23.550781 21.054688 23.550781 C 21.035156 23.234375 21.015625 22.917969 20.992188 22.59375 C 20.929688 22.59375 20.867188 22.59375 20.800781 22.59375 C 20.757812 22.59375 20.714844 22.59375 20.671875 22.59375 C 20.671875 22.527344 20.671875 22.464844 20.671875 22.398438 C 20.609375 22.398438 20.546875 22.398438 20.480469 22.398438 C 20.480469 22.441406 20.480469 22.484375 20.480469 22.527344 C 20.332031 22.507812 20.183594 22.484375 20.03125 22.464844 C 20.011719 22.359375 19.988281 22.253906 19.96875 22.144531 Z M 19.96875 22.144531 "/>
<path style=" stroke:none;fill-rule:nonzero;fill:rgb(63.921571%,63.921571%,63.921571%);fill-opacity:1;" d="M 16.972656 7.019531 C 17.097656 7.066406 17.21875 7.117188 17.34375 7.167969 C 17.191406 7.289062 17.082031 7.363281 16.894531 7.425781 C 16.738281 7.386719 16.738281 7.386719 16.5625 7.332031 C 16.507812 7.3125 16.449219 7.296875 16.390625 7.277344 C 16.324219 7.253906 16.324219 7.253906 16.257812 7.230469 C 16.277344 7.167969 16.296875 7.105469 16.320312 7.039062 C 16.535156 6.933594 16.742188 6.949219 16.972656 7.019531 Z M 16.972656 7.019531 "/>
<path style=" stroke:none;fill-rule:nonzero;fill:rgb(62.7451%,62.7451%,62.7451%);fill-opacity:1;" d="M 17.34375 15.167969 C 17.363281 15.167969 17.386719 15.167969 17.40625 15.167969 C 17.503906 15.90625 17.503906 15.90625 17.40625 16.257812 C 17.242188 16.445312 17.242188 16.445312 17.089844 16.574219 C 17.070312 16.089844 17.070312 16.089844 17.214844 15.871094 C 17.246094 15.75 17.269531 15.628906 17.289062 15.507812 C 17.296875 15.445312 17.308594 15.378906 17.320312 15.316406 C 17.328125 15.265625 17.335938 15.21875 17.34375 15.167969 Z M 17.34375 15.167969 "/>
<path style=" stroke:none;fill-rule:nonzero;fill:rgb(43.529412%,43.529412%,43.529412%);fill-opacity:1;" d="M 16.328125 12.074219 C 16.40625 12.078125 16.488281 12.078125 16.570312 12.078125 C 16.769531 12.097656 16.769531 12.097656 16.894531 12.222656 C 16.980469 12.265625 17.066406 12.308594 17.152344 12.351562 C 16.644531 12.332031 16.136719 12.308594 15.617188 12.289062 C 15.902344 12.074219 15.984375 12.070312 16.328125 12.074219 Z M 16.328125 12.074219 "/>
<path style=" stroke:none;fill-rule:nonzero;fill:rgb(14.901961%,14.901961%,14.901961%);fill-opacity:1;" d="M 14.464844 12.03125 C 14.464844 12.054688 14.464844 12.074219 14.464844 12.097656 C 14.335938 12.097656 14.210938 12.097656 14.078125 12.097656 C 14.078125 12.136719 14.078125 12.179688 14.078125 12.222656 C 14.121094 12.246094 14.164062 12.265625 14.207031 12.289062 C 14.097656 12.398438 13.949219 12.402344 13.800781 12.433594 C 13.738281 12.445312 13.675781 12.460938 13.609375 12.472656 C 13.441406 12.480469 13.441406 12.480469 13.320312 12.386719 C 13.296875 12.355469 13.273438 12.320312 13.246094 12.289062 C 13.375 12.265625 13.5 12.246094 13.632812 12.222656 C 13.632812 12.183594 13.632812 12.140625 13.632812 12.097656 C 13.734375 12.074219 13.835938 12.050781 13.941406 12.027344 C 13.996094 12.015625 14.054688 12.003906 14.113281 11.988281 C 14.273438 11.96875 14.273438 11.96875 14.464844 12.03125 Z M 14.464844 12.03125 "/>
<path style=" stroke:none;fill-rule:nonzero;fill:rgb(72.156864%,72.156864%,72.156864%);fill-opacity:1;" d="M 18.433594 22.464844 C 19.242188 22.453125 19.242188 22.453125 19.585938 22.527344 C 19.605469 22.589844 19.625 22.65625 19.648438 22.71875 C 19.238281 22.726562 18.839844 22.703125 18.433594 22.65625 C 18.433594 22.59375 18.433594 22.527344 18.433594 22.464844 Z M 18.433594 22.464844 "/>
<path style=" stroke:none;fill-rule:nonzero;fill:rgb(63.529414%,63.529414%,63.529414%);fill-opacity:1;" d="M 16.257812 12.671875 C 17.203125 12.636719 17.203125 12.636719 17.601562 12.863281 C 17.601562 12.886719 17.601562 12.90625 17.601562 12.929688 C 17.425781 12.917969 17.246094 12.910156 17.070312 12.898438 C 16.996094 12.894531 16.996094 12.894531 16.921875 12.890625 C 16.871094 12.890625 16.824219 12.886719 16.773438 12.882812 C 16.730469 12.882812 16.6875 12.878906 16.640625 12.878906 C 16.507812 12.863281 16.386719 12.835938 16.257812 12.800781 C 16.257812 12.757812 16.257812 12.714844 16.257812 12.671875 Z M 16.257812 12.671875 "/>
<path style=" stroke:none;fill-rule:nonzero;fill:rgb(78.823531%,78.823531%,78.823531%);fill-opacity:1;" d="M 17.664062 17.40625 C 17.855469 17.472656 17.855469 17.472656 17.933594 17.625 C 17.957031 17.6875 17.976562 17.75 18 17.816406 C 18.023438 17.878906 18.046875 17.941406 18.070312 18.003906 C 18.113281 18.175781 18.113281 18.175781 18.046875 18.367188 C 17.96875 18.273438 17.890625 18.179688 17.8125 18.085938 C 17.746094 18.003906 17.679688 17.925781 17.613281 17.847656 C 17.535156 17.726562 17.535156 17.726562 17.535156 17.472656 C 17.578125 17.449219 17.621094 17.429688 17.664062 17.40625 Z M 17.664062 17.40625 "/>
<path style=" stroke:none;fill-rule:nonzero;fill:rgb(45.490196%,45.490196%,45.490196%);fill-opacity:1;" d="M 17.214844 14.464844 C 17.238281 14.464844 17.257812 14.464844 17.28125 14.464844 C 17.28125 14.589844 17.28125 14.71875 17.28125 14.847656 C 17.238281 14.847656 17.195312 14.847656 17.152344 14.847656 C 17.160156 14.964844 17.160156 14.964844 17.167969 15.085938 C 17.1875 15.390625 17.121094 15.402344 16.894531 15.679688 C 16.894531 15.363281 16.894531 15.046875 16.894531 14.71875 C 16.980469 14.699219 17.066406 14.679688 17.152344 14.65625 C 17.171875 14.59375 17.195312 14.527344 17.214844 14.464844 Z M 17.214844 14.464844 "/>
<path style=" stroke:none;fill-rule:nonzero;fill:rgb(76.862746%,76.862746%,76.862746%);fill-opacity:1;" d="M 18.6875 20.097656 C 18.898438 20.097656 19.109375 20.097656 19.328125 20.097656 C 19.285156 20.136719 19.242188 20.179688 19.199219 20.222656 C 19.253906 20.261719 19.304688 20.304688 19.359375 20.34375 C 19.414062 20.390625 19.464844 20.433594 19.519531 20.480469 C 19.519531 20.523438 19.519531 20.566406 19.519531 20.609375 C 19.5625 20.609375 19.605469 20.609375 19.648438 20.609375 C 19.625 20.671875 19.605469 20.734375 19.585938 20.800781 C 19.550781 20.773438 19.519531 20.75 19.488281 20.722656 C 19.210938 20.503906 18.953125 20.347656 18.625 20.222656 C 18.644531 20.183594 18.667969 20.140625 18.6875 20.097656 Z M 18.6875 20.097656 "/>
<path style=" stroke:none;fill-rule:nonzero;fill:rgb(28.235295%,28.235295%,28.235295%);fill-opacity:1;" d="M 12.800781 18.878906 C 12.777344 19.046875 12.753906 19.117188 12.625 19.230469 C 12.578125 19.257812 12.535156 19.285156 12.488281 19.3125 C 12.421875 19.351562 12.421875 19.351562 12.351562 19.394531 C 12.222656 19.457031 12.222656 19.457031 12.03125 19.457031 C 12.070312 19.261719 12.105469 19.117188 12.261719 18.988281 C 12.566406 18.804688 12.566406 18.804688 12.800781 18.878906 Z M 12.800781 18.878906 "/>
<path style=" stroke:none;fill-rule:nonzero;fill:rgb(11.372549%,11.372549%,11.372549%);fill-opacity:1;" d="M 16.574219 6.65625 C 17.050781 6.695312 17.050781 6.695312 17.214844 6.808594 C 17.28125 6.910156 17.28125 6.910156 17.28125 7.105469 C 17.214844 7.09375 17.152344 7.085938 17.089844 7.074219 C 16.832031 7.039062 16.578125 7.007812 16.320312 6.976562 C 16.320312 6.953125 16.320312 6.933594 16.320312 6.910156 C 16.445312 6.871094 16.574219 6.828125 16.703125 6.785156 C 16.660156 6.785156 16.621094 6.785156 16.574219 6.785156 C 16.574219 6.742188 16.574219 6.699219 16.574219 6.65625 Z M 16.574219 6.65625 "/>
<path style=" stroke:none;fill-rule:nonzero;fill:rgb(43.529412%,43.529412%,43.529412%);fill-opacity:1;" d="M 18.175781 9.34375 C 18.21875 9.429688 18.261719 9.511719 18.304688 9.601562 C 18.347656 9.601562 18.386719 9.601562 18.433594 9.601562 C 18.503906 9.8125 18.492188 9.847656 18.421875 10.046875 C 18.40625 10.089844 18.390625 10.136719 18.375 10.179688 C 18.304688 10.304688 18.304688 10.304688 18.046875 10.496094 C 18.089844 10.117188 18.132812 9.734375 18.175781 9.34375 Z M 18.175781 9.34375 "/>
<path style=" stroke:none;fill-rule:nonzero;fill:rgb(30.19608%,30.19608%,30.19608%);fill-opacity:1;" d="M 12.609375 20.160156 C 12.382812 20.332031 12.144531 20.488281 11.90625 20.644531 C 11.769531 20.734375 11.769531 20.734375 11.648438 20.863281 C 11.585938 20.863281 11.519531 20.863281 11.457031 20.863281 C 11.5625 20.546875 11.824219 20.398438 12.101562 20.234375 C 12.289062 20.160156 12.410156 20.140625 12.609375 20.160156 Z M 12.609375 20.160156 "/>
<path style=" stroke:none;fill-rule:nonzero;fill:rgb(84.313726%,84.313726%,84.313726%);fill-opacity:1;" d="M 17.726562 12.222656 C 18.492188 12.261719 18.492188 12.261719 18.753906 12.480469 C 18.773438 12.523438 18.792969 12.566406 18.816406 12.609375 C 18.476562 12.542969 18.140625 12.480469 17.792969 12.414062 C 17.769531 12.351562 17.75 12.289062 17.726562 12.222656 Z M 17.726562 12.222656 "/>
<path style=" stroke:none;fill-rule:nonzero;fill:rgb(66.666669%,66.666669%,66.666669%);fill-opacity:1;" d="M 18.367188 8.960938 C 18.410156 8.980469 18.453125 9.003906 18.496094 9.023438 C 18.496094 9.257812 18.496094 9.488281 18.496094 9.726562 C 18.476562 9.6875 18.453125 9.644531 18.433594 9.601562 C 18.367188 9.621094 18.304688 9.640625 18.238281 9.664062 C 18.179688 9.320312 18.179688 9.320312 18.175781 9.152344 C 18.269531 9.023438 18.269531 9.023438 18.367188 8.960938 Z M 18.367188 8.960938 "/>
<path style=" stroke:none;fill-rule:nonzero;fill:rgb(12.54902%,12.54902%,12.54902%);fill-opacity:1;" d="M 17.984375 7.617188 C 18.089844 7.617188 18.195312 7.617188 18.304688 7.617188 C 18.503906 8.039062 18.503906 8.039062 18.433594 8.257812 C 18.390625 8.257812 18.347656 8.257812 18.304688 8.257812 C 18.222656 8.148438 18.222656 8.148438 18.136719 8.007812 C 18.109375 7.960938 18.078125 7.914062 18.050781 7.867188 C 17.984375 7.742188 17.984375 7.742188 17.984375 7.617188 Z M 17.984375 7.617188 "/>
<path style=" stroke:none;fill-rule:nonzero;fill:rgb(31.764707%,31.764707%,31.764707%);fill-opacity:1;" d="M 17.792969 22.464844 C 17.769531 22.527344 17.75 22.589844 17.726562 22.65625 C 17.273438 22.664062 16.832031 22.664062 16.382812 22.59375 C 16.382812 22.570312 16.382812 22.550781 16.382812 22.527344 C 16.558594 22.515625 16.734375 22.507812 16.90625 22.496094 C 16.957031 22.492188 17.007812 22.488281 17.058594 22.488281 C 17.300781 22.472656 17.546875 22.460938 17.792969 22.464844 Z M 17.792969 22.464844 "/>
<path style=" stroke:none;fill-rule:nonzero;fill:rgb(60.000002%,60.000002%,60.000002%);fill-opacity:1;" d="M 17.601562 22.015625 C 17.636719 22.046875 17.671875 22.078125 17.707031 22.109375 C 17.878906 22.222656 17.988281 22.238281 18.191406 22.253906 C 18.25 22.257812 18.304688 22.261719 18.363281 22.265625 C 18.410156 22.265625 18.453125 22.269531 18.496094 22.273438 C 18.496094 22.230469 18.496094 22.1875 18.496094 22.144531 C 18.664062 22.164062 18.832031 22.1875 19.007812 22.207031 C 19.007812 22.25 19.007812 22.292969 19.007812 22.335938 C 18.808594 22.339844 18.609375 22.34375 18.410156 22.347656 C 18.355469 22.347656 18.300781 22.351562 18.242188 22.351562 C 18.160156 22.355469 18.160156 22.355469 18.078125 22.355469 C 18.027344 22.355469 17.976562 22.355469 17.925781 22.359375 C 17.757812 22.332031 17.703125 22.277344 17.601562 22.144531 C 17.601562 22.101562 17.601562 22.058594 17.601562 22.015625 Z M 17.601562 22.015625 "/>
<path style=" stroke:none;fill-rule:nonzero;fill:rgb(62.352943%,62.352943%,62.352943%);fill-opacity:1;" d="M 11.519531 20.414062 C 11.5625 20.4375 11.605469 20.457031 11.648438 20.480469 C 11.617188 20.503906 11.589844 20.527344 11.558594 20.550781 C 11.425781 20.707031 11.390625 20.863281 11.328125 21.054688 C 11.285156 21.097656 11.242188 21.140625 11.199219 21.183594 C 11.171875 21.355469 11.171875 21.355469 11.160156 21.542969 C 11.15625 21.609375 11.152344 21.671875 11.144531 21.738281 C 11.140625 21.789062 11.140625 21.835938 11.136719 21.886719 C 11.113281 21.886719 11.09375 21.886719 11.070312 21.886719 C 11.027344 21.363281 11.035156 21.007812 11.367188 20.582031 C 11.414062 20.527344 11.464844 20.46875 11.519531 20.414062 Z M 11.519531 20.414062 "/>
<path style=" stroke:none;fill-rule:nonzero;fill:rgb(51.372552%,51.372552%,51.372552%);fill-opacity:1;" d="M 17.28125 14.207031 C 17.300781 14.207031 17.320312 14.207031 17.34375 14.207031 C 17.363281 14.523438 17.386719 14.839844 17.40625 15.167969 C 17.28125 15.230469 17.28125 15.230469 17.152344 15.296875 C 17.152344 15.148438 17.152344 15 17.152344 14.847656 C 17.195312 14.847656 17.238281 14.847656 17.28125 14.847656 C 17.28125 14.636719 17.28125 14.425781 17.28125 14.207031 Z M 17.28125 14.207031 "/>
<path style=" stroke:none;fill-rule:nonzero;fill:rgb(46.27451%,46.27451%,46.27451%);fill-opacity:1;" d="M 12.351562 12.671875 C 12.375 12.714844 12.394531 12.757812 12.414062 12.800781 C 12.394531 12.863281 12.375 12.925781 12.351562 12.992188 C 12.414062 13.007812 12.476562 13.023438 12.539062 13.039062 C 12.605469 13.066406 12.667969 13.09375 12.734375 13.121094 C 12.785156 13.246094 12.785156 13.246094 12.800781 13.375 C 12.84375 13.417969 12.882812 13.460938 12.929688 13.503906 C 12.648438 13.472656 12.480469 13.316406 12.289062 13.121094 C 12.261719 12.910156 12.261719 12.910156 12.289062 12.734375 C 12.308594 12.714844 12.332031 12.695312 12.351562 12.671875 Z M 12.351562 12.671875 "/>
<path style=" stroke:none;fill-rule:nonzero;fill:rgb(45.490196%,45.490196%,45.490196%);fill-opacity:1;" d="M 11.902344 19.839844 C 11.96875 19.859375 12.03125 19.882812 12.097656 19.902344 C 12.117188 20.03125 12.136719 20.15625 12.160156 20.289062 C 12.097656 20.316406 12.039062 20.347656 11.976562 20.375 C 11.777344 20.46875 11.777344 20.46875 11.648438 20.609375 C 11.625 20.566406 11.605469 20.523438 11.585938 20.480469 C 11.886719 20.167969 11.886719 20.167969 12.03125 20.097656 C 11.988281 20.011719 11.949219 19.925781 11.902344 19.839844 Z M 11.902344 19.839844 "/>
<path style=" stroke:none;fill-rule:nonzero;fill:rgb(51.372552%,51.372552%,51.372552%);fill-opacity:1;" d="M 13.632812 16.320312 C 13.691406 16.511719 13.699219 16.566406 13.632812 16.769531 C 13.675781 16.789062 13.714844 16.808594 13.761719 16.832031 C 13.707031 16.988281 13.707031 16.988281 13.632812 17.152344 C 13.570312 17.171875 13.503906 17.195312 13.441406 17.214844 C 13.472656 16.898438 13.519531 16.621094 13.632812 16.320312 Z M 13.632812 16.320312 "/>
<path style=" stroke:none;fill-rule:nonzero;fill:rgb(66.274512%,66.274512%,66.274512%);fill-opacity:1;" d="M 19.839844 20.542969 C 19.902344 20.542969 19.964844 20.542969 20.03125 20.542969 C 20.054688 20.671875 20.074219 20.796875 20.097656 20.929688 C 19.949219 20.90625 19.800781 20.886719 19.648438 20.863281 C 19.730469 20.703125 19.730469 20.703125 19.839844 20.542969 Z M 19.839844 20.542969 "/>
<path style=" stroke:none;fill-rule:nonzero;fill:rgb(28.627452%,28.627452%,28.627452%);fill-opacity:1;" d="M 18.367188 18.6875 C 18.472656 18.75 18.578125 18.816406 18.6875 18.878906 C 18.667969 18.921875 18.644531 18.964844 18.625 19.007812 C 18.5625 19.007812 18.496094 19.007812 18.433594 19.007812 C 18.410156 19.113281 18.390625 19.21875 18.367188 19.328125 C 18.355469 19.273438 18.355469 19.273438 18.34375 19.214844 C 18.304688 19.070312 18.246094 18.949219 18.175781 18.816406 C 18.238281 18.773438 18.300781 18.730469 18.367188 18.6875 Z M 18.367188 18.6875 "/>
<path style=" stroke:none;fill-rule:nonzero;fill:rgb(44.313726%,44.313726%,44.313726%);fill-opacity:1;" d="M 19.777344 19.648438 C 19.902344 19.679688 19.902344 19.679688 20.03125 19.710938 C 19.910156 20.023438 19.910156 20.023438 19.839844 20.097656 C 19.902344 20.160156 19.964844 20.222656 20.03125 20.289062 C 19.949219 20.265625 19.863281 20.246094 19.777344 20.222656 C 19.753906 20.265625 19.734375 20.308594 19.710938 20.351562 C 19.734375 20.121094 19.753906 19.886719 19.777344 19.648438 Z M 19.777344 19.648438 "/>
<path style=" stroke:none;fill-rule:nonzero;fill:rgb(49.803922%,49.803922%,49.803922%);fill-opacity:1;" d="M 19.136719 12.414062 C 19.277344 12.441406 19.382812 12.472656 19.503906 12.550781 C 19.625 12.734375 19.597656 12.90625 19.585938 13.121094 C 19.5625 13.121094 19.542969 13.121094 19.519531 13.121094 C 19.5 12.992188 19.476562 12.867188 19.457031 12.734375 C 19.457031 12.800781 19.457031 12.863281 19.457031 12.929688 C 19.371094 12.886719 19.285156 12.84375 19.199219 12.800781 C 19.214844 12.761719 19.226562 12.722656 19.238281 12.679688 C 19.246094 12.636719 19.253906 12.589844 19.265625 12.542969 C 19.222656 12.5 19.179688 12.460938 19.136719 12.414062 Z M 19.136719 12.414062 "/>
<path style=" stroke:none;fill-rule:nonzero;fill:rgb(27.058825%,27.058825%,27.058825%);fill-opacity:1;" d="M 16.3125 12.605469 C 16.386719 12.605469 16.460938 12.605469 16.535156 12.605469 C 16.589844 12.605469 16.648438 12.605469 16.703125 12.609375 C 16.703125 12.628906 16.703125 12.648438 16.703125 12.671875 C 16.554688 12.671875 16.410156 12.671875 16.257812 12.671875 C 16.257812 12.714844 16.257812 12.757812 16.257812 12.800781 C 16.003906 12.777344 15.75 12.757812 15.488281 12.734375 C 15.488281 12.714844 15.488281 12.695312 15.488281 12.671875 C 15.765625 12.617188 16.027344 12.601562 16.3125 12.605469 Z M 16.3125 12.605469 "/>
<path style=" stroke:none;fill-rule:nonzero;fill:rgb(60.392159%,60.392159%,60.392159%);fill-opacity:1;" d="M 18.238281 20.929688 C 18.308594 20.992188 18.308594 20.992188 18.378906 21.058594 C 18.546875 21.203125 18.546875 21.203125 18.738281 21.167969 C 18.785156 21.152344 18.832031 21.136719 18.878906 21.121094 C 18.878906 21.203125 18.878906 21.289062 18.878906 21.375 C 18.921875 21.417969 18.964844 21.460938 19.007812 21.503906 C 18.75 21.464844 18.574219 21.339844 18.367188 21.183594 C 18.28125 21.039062 18.28125 21.039062 18.238281 20.929688 Z M 18.878906 21.054688 C 19.007812 21.121094 19.007812 21.121094 19.007812 21.121094 Z M 18.878906 21.054688 "/>
<path style=" stroke:none;fill-rule:nonzero;fill:rgb(33.725491%,33.725491%,33.725491%);fill-opacity:1;" d="M 19.328125 18.625 C 19.371094 18.625 19.414062 18.625 19.457031 18.625 C 19.585938 18.816406 19.585938 18.816406 19.558594 18.957031 C 19.546875 18.996094 19.535156 19.03125 19.519531 19.070312 C 19.394531 19.03125 19.265625 18.988281 19.136719 18.945312 C 19.222656 18.785156 19.222656 18.785156 19.328125 18.625 Z M 19.328125 18.625 "/>
<path style=" stroke:none;fill-rule:nonzero;fill:rgb(47.058824%,47.058824%,47.058824%);fill-opacity:1;" d="M 14.464844 12.03125 C 14.464844 12.054688 14.464844 12.074219 14.464844 12.097656 C 14.335938 12.097656 14.210938 12.097656 14.078125 12.097656 C 14.078125 12.136719 14.078125 12.179688 14.078125 12.222656 C 14.121094 12.246094 14.164062 12.265625 14.207031 12.289062 C 14.125 12.308594 14.039062 12.332031 13.953125 12.351562 C 13.953125 12.308594 13.953125 12.265625 13.953125 12.222656 C 13.847656 12.203125 13.742188 12.183594 13.632812 12.160156 C 13.90625 12.003906 14.160156 11.929688 14.464844 12.03125 Z M 14.464844 12.03125 "/>
<path style=" stroke:none;fill-rule:nonzero;fill:rgb(12.941177%,12.941177%,12.941177%);fill-opacity:1;" d="M 19.710938 22.144531 C 19.816406 22.164062 19.921875 22.1875 20.03125 22.207031 C 20.03125 22.292969 20.03125 22.378906 20.03125 22.464844 C 19.925781 22.464844 19.820312 22.464844 19.710938 22.464844 C 19.691406 22.402344 19.667969 22.335938 19.648438 22.273438 C 19.667969 22.230469 19.691406 22.1875 19.710938 22.144531 Z M 19.710938 22.144531 "/>
<path style=" stroke:none;fill-rule:nonzero;fill:rgb(69.803923%,69.803923%,69.803923%);fill-opacity:1;" d="M 20.863281 23.742188 C 20.84375 23.808594 20.820312 23.871094 20.800781 23.9375 C 20.757812 23.9375 20.714844 23.9375 20.671875 23.9375 C 20.671875 23.894531 20.671875 23.851562 20.671875 23.808594 C 20.640625 23.828125 20.605469 23.851562 20.570312 23.871094 C 20.367188 23.957031 20.1875 23.945312 19.96875 23.9375 C 20.21875 23.683594 20.527344 23.738281 20.863281 23.742188 Z M 20.863281 23.742188 "/>
<path style=" stroke:none;fill-rule:nonzero;fill:rgb(36.862746%,36.862746%,36.862746%);fill-opacity:1;" d="M 17.28125 13.761719 C 17.300781 13.761719 17.320312 13.761719 17.34375 13.761719 C 17.359375 14.183594 17.359375 14.183594 17.214844 14.398438 C 17.171875 14.359375 17.132812 14.316406 17.089844 14.273438 C 17.117188 13.921875 17.117188 13.921875 17.28125 13.761719 Z M 17.28125 13.761719 "/>
<path style=" stroke:none;fill-rule:nonzero;fill:rgb(9.803922%,9.803922%,9.803922%);fill-opacity:1;" d="M 19.070312 12.734375 C 19.15625 12.777344 19.242188 12.820312 19.328125 12.863281 C 19.328125 13.054688 19.328125 13.054688 19.230469 13.164062 C 19.199219 13.191406 19.167969 13.21875 19.136719 13.246094 C 19 12.953125 19 12.953125 19.070312 12.734375 Z M 19.070312 12.734375 "/>
<path style=" stroke:none;fill-rule:nonzero;fill:rgb(64.313728%,64.313728%,64.313728%);fill-opacity:1;" d="M 18.433594 22.464844 C 18.644531 22.484375 18.855469 22.507812 19.070312 22.527344 C 19.070312 22.570312 19.070312 22.613281 19.070312 22.65625 C 18.859375 22.65625 18.648438 22.65625 18.433594 22.65625 C 18.433594 22.59375 18.433594 22.527344 18.433594 22.464844 Z M 18.433594 22.464844 "/>
<path style=" stroke:none;fill-rule:nonzero;fill:rgb(52.941179%,52.941179%,52.941179%);fill-opacity:1;" d="M 19.585938 18.878906 C 19.667969 18.964844 19.753906 19.050781 19.839844 19.136719 C 19.777344 19.136719 19.714844 19.136719 19.648438 19.136719 C 19.710938 19.230469 19.710938 19.230469 19.777344 19.328125 C 19.710938 19.347656 19.648438 19.371094 19.585938 19.390625 C 19.542969 19.371094 19.5 19.351562 19.457031 19.328125 C 19.511719 19.023438 19.511719 19.023438 19.585938 18.878906 Z M 19.585938 18.878906 "/>
<path style=" stroke:none;fill-rule:nonzero;fill:rgb(56.862748%,56.862748%,56.862748%);fill-opacity:1;" d="M 17.214844 15.425781 C 17.257812 15.445312 17.300781 15.464844 17.34375 15.488281 C 17.277344 15.777344 17.207031 16.046875 17.089844 16.320312 C 17.066406 16.320312 17.046875 16.320312 17.023438 16.320312 C 16.996094 15.972656 17.085938 15.738281 17.214844 15.425781 Z M 17.214844 15.425781 "/>
<path style=" stroke:none;fill-rule:nonzero;fill:rgb(27.843139%,27.843139%,27.843139%);fill-opacity:1;" d="M 18.558594 12.289062 C 18.707031 12.289062 18.855469 12.289062 19.007812 12.289062 C 19.007812 12.351562 19.007812 12.414062 19.007812 12.480469 C 18.945312 12.511719 18.945312 12.511719 18.878906 12.542969 C 18.859375 12.585938 18.835938 12.628906 18.816406 12.671875 C 18.730469 12.546875 18.648438 12.417969 18.558594 12.289062 Z M 18.558594 12.289062 "/>
<path style=" stroke:none;fill-rule:nonzero;fill:rgb(52.941179%,52.941179%,52.941179%);fill-opacity:1;" d="M 18.175781 9.34375 C 18.21875 9.429688 18.261719 9.511719 18.304688 9.601562 C 18.347656 9.601562 18.386719 9.601562 18.433594 9.601562 C 18.453125 9.664062 18.472656 9.726562 18.496094 9.792969 C 18.433594 9.886719 18.433594 9.886719 18.367188 9.984375 C 18.304688 9.984375 18.242188 9.984375 18.175781 9.984375 C 18.175781 9.773438 18.175781 9.5625 18.175781 9.34375 Z M 18.175781 9.34375 "/>
<path style=" stroke:none;fill-rule:nonzero;fill:rgb(78.431374%,78.431374%,78.431374%);fill-opacity:1;" d="M 21.183594 23.488281 C 21.183594 23.679688 21.183594 23.679688 21.121094 23.871094 C 20.957031 23.949219 20.957031 23.949219 20.800781 24 C 20.820312 23.875 20.820312 23.875 20.863281 23.742188 C 20.925781 23.722656 20.992188 23.703125 21.054688 23.679688 C 21.054688 23.636719 21.054688 23.59375 21.054688 23.550781 C 21.097656 23.53125 21.140625 23.507812 21.183594 23.488281 Z M 21.183594 23.488281 "/>
<path style=" stroke:none;fill-rule:nonzero;fill:rgb(26.666668%,27.058825%,26.666668%);fill-opacity:1;" d="M 11.199219 21.441406 C 11.335938 21.589844 11.390625 21.667969 11.402344 21.871094 C 11.398438 21.917969 11.394531 21.96875 11.390625 22.015625 C 11.328125 22.039062 11.265625 22.058594 11.199219 22.078125 C 11.121094 21.851562 11.152344 21.675781 11.199219 21.441406 Z M 11.199219 21.441406 "/>
<path style=" stroke:none;fill-rule:nonzero;fill:rgb(38.82353%,38.82353%,38.82353%);fill-opacity:1;" d="M 13.632812 12.222656 C 13.570312 12.246094 13.503906 12.265625 13.441406 12.289062 C 13.441406 12.351562 13.441406 12.414062 13.441406 12.480469 C 13.355469 12.5 13.269531 12.523438 13.183594 12.542969 C 13.183594 12.480469 13.183594 12.417969 13.183594 12.351562 C 13.121094 12.332031 13.058594 12.308594 12.992188 12.289062 C 13.394531 12.132812 13.394531 12.132812 13.632812 12.222656 Z M 13.632812 12.222656 "/>
<path style=" stroke:none;fill-rule:nonzero;fill:rgb(70.19608%,70.19608%,70.19608%);fill-opacity:1;" d="M 17.28125 12.160156 C 17.492188 12.160156 17.703125 12.160156 17.921875 12.160156 C 17.824219 12.285156 17.824219 12.285156 17.726562 12.414062 C 17.582031 12.394531 17.433594 12.375 17.28125 12.351562 C 17.28125 12.289062 17.28125 12.226562 17.28125 12.160156 Z M 17.28125 12.160156 "/>
<path style=" stroke:none;fill-rule:nonzero;fill:rgb(72.941178%,72.941178%,72.941178%);fill-opacity:1;" d="M 17.359375 7.253906 C 17.414062 7.273438 17.414062 7.273438 17.472656 7.296875 C 17.378906 7.453125 17.378906 7.453125 17.28125 7.617188 C 17.175781 7.550781 17.070312 7.488281 16.960938 7.425781 C 17.179688 7.226562 17.179688 7.226562 17.359375 7.253906 Z M 17.359375 7.253906 "/>
<path style=" stroke:none;fill-rule:nonzero;fill:rgb(9.019608%,9.019608%,9.019608%);fill-opacity:1;" d="M 15.742188 22.59375 C 15.785156 22.613281 15.828125 22.632812 15.871094 22.65625 C 15.828125 22.761719 15.789062 22.867188 15.742188 22.976562 C 15.574219 22.933594 15.40625 22.890625 15.230469 22.847656 C 15.230469 22.828125 15.230469 22.804688 15.230469 22.785156 C 15.359375 22.785156 15.484375 22.785156 15.617188 22.785156 C 15.617188 22.742188 15.617188 22.699219 15.617188 22.65625 C 15.660156 22.636719 15.699219 22.613281 15.742188 22.59375 Z M 15.742188 22.59375 "/>
<path style=" stroke:none;fill-rule:nonzero;fill:rgb(51.764709%,51.764709%,51.764709%);fill-opacity:1;" d="M 18.046875 12.097656 C 18.140625 12.101562 18.234375 12.113281 18.328125 12.121094 C 18.40625 12.125 18.40625 12.125 18.484375 12.132812 C 18.625 12.160156 18.625 12.160156 18.753906 12.289062 C 18.515625 12.347656 18.347656 12.347656 18.113281 12.289062 C 18.089844 12.226562 18.070312 12.160156 18.046875 12.097656 Z M 18.046875 12.097656 "/>
<path style=" stroke:none;fill-rule:nonzero;fill:rgb(46.666667%,46.666667%,46.666667%);fill-opacity:1;" d="M 16.832031 6.976562 C 16.769531 7.070312 16.769531 7.070312 16.703125 7.167969 C 16.472656 7.210938 16.472656 7.210938 16.257812 7.230469 C 16.277344 7.167969 16.296875 7.105469 16.320312 7.039062 C 16.492188 6.953125 16.640625 6.972656 16.832031 6.976562 Z M 16.832031 6.976562 "/>
<path style=" stroke:none;fill-rule:nonzero;fill:rgb(25.490198%,25.490198%,25.490198%);fill-opacity:1;" d="M 12.609375 18.816406 C 12.671875 18.835938 12.734375 18.859375 12.800781 18.878906 C 12.789062 19 12.789062 19 12.734375 19.136719 C 12.570312 19.214844 12.570312 19.214844 12.414062 19.265625 C 12.441406 19.074219 12.441406 19.074219 12.480469 18.878906 C 12.523438 18.859375 12.566406 18.835938 12.609375 18.816406 Z M 12.609375 18.816406 "/>
<path style=" stroke:none;fill-rule:nonzero;fill:rgb(16.470589%,16.470589%,16.470589%);fill-opacity:1;" d="M 18.945312 12.414062 C 19.050781 12.4375 19.15625 12.457031 19.265625 12.480469 C 19.265625 12.542969 19.265625 12.605469 19.265625 12.671875 C 19.136719 12.671875 19.007812 12.671875 18.878906 12.671875 C 18.902344 12.585938 18.921875 12.503906 18.945312 12.414062 Z M 18.945312 12.414062 "/>
<path style=" stroke:none;fill-rule:nonzero;fill:rgb(73.725492%,73.725492%,73.725492%);fill-opacity:1;" d="M 18.496094 8.703125 C 18.496094 8.808594 18.496094 8.914062 18.496094 9.023438 C 18.410156 9.023438 18.328125 9.023438 18.238281 9.023438 C 18.21875 9.066406 18.199219 9.109375 18.175781 9.152344 C 18.15625 9.066406 18.132812 8.984375 18.113281 8.894531 C 18.425781 8.703125 18.425781 8.703125 18.496094 8.703125 Z M 18.496094 8.703125 "/>
<path style=" stroke:none;fill-rule:nonzero;fill:rgb(88.627452%,88.627452%,88.627452%);fill-opacity:1;" d="M 21.121094 22.65625 C 21.140625 22.65625 21.164062 22.65625 21.183594 22.65625 C 21.34375 23.140625 21.34375 23.140625 21.246094 23.425781 C 21.207031 23.464844 21.164062 23.507812 21.121094 23.550781 C 21.121094 23.257812 21.121094 22.960938 21.121094 22.65625 Z M 21.121094 22.65625 "/>
<path style=" stroke:none;fill-rule:nonzero;fill:rgb(44.313726%,44.313726%,44.313726%);fill-opacity:1;" d="M 19.96875 22.144531 C 20.253906 22.207031 20.253906 22.207031 20.542969 22.273438 C 20.355469 22.367188 20.230469 22.421875 20.03125 22.464844 C 20.011719 22.359375 19.988281 22.253906 19.96875 22.144531 Z M 19.96875 22.144531 "/>
<path style=" stroke:none;fill-rule:nonzero;fill:rgb(24.313726%,24.313726%,24.313726%);fill-opacity:1;" d="M 11.777344 20.414062 C 11.816406 20.4375 11.859375 20.457031 11.902344 20.480469 C 11.746094 20.789062 11.746094 20.789062 11.570312 20.851562 C 11.535156 20.855469 11.496094 20.859375 11.457031 20.863281 C 11.527344 20.652344 11.613281 20.566406 11.777344 20.414062 Z M 11.777344 20.414062 "/>
<path style=" stroke:none;fill-rule:nonzero;fill:rgb(78.823531%,78.823531%,78.823531%);fill-opacity:1;" d="M 19.777344 20.351562 C 19.839844 20.414062 19.902344 20.480469 19.96875 20.542969 C 19.882812 20.628906 19.800781 20.714844 19.710938 20.800781 C 19.667969 20.777344 19.628906 20.757812 19.585938 20.734375 C 19.621094 20.550781 19.640625 20.488281 19.777344 20.351562 Z M 19.777344 20.351562 "/>
<path style=" stroke:none;fill-rule:nonzero;fill:rgb(50.588238%,50.588238%,50.588238%);fill-opacity:1;" d="M 18.835938 20.089844 C 18.921875 20.089844 18.921875 20.089844 19.011719 20.09375 C 19.070312 20.09375 19.128906 20.09375 19.191406 20.09375 C 19.234375 20.09375 19.28125 20.09375 19.328125 20.097656 C 19.328125 20.117188 19.328125 20.136719 19.328125 20.160156 C 19.203125 20.160156 19.074219 20.160156 18.945312 20.160156 C 18.921875 20.222656 18.902344 20.285156 18.878906 20.351562 C 18.796875 20.289062 18.710938 20.226562 18.625 20.160156 C 18.6875 20.097656 18.6875 20.097656 18.835938 20.089844 Z M 18.835938 20.089844 "/>
<path style=" stroke:none;fill-rule:nonzero;fill:rgb(29.019609%,29.019609%,29.019609%);fill-opacity:1;" d="M 16.046875 12.117188 C 16.121094 12.136719 16.121094 12.136719 16.191406 12.160156 C 16.191406 12.203125 16.191406 12.246094 16.191406 12.289062 C 16 12.289062 15.8125 12.289062 15.617188 12.289062 C 15.773438 12.140625 15.828125 12.089844 16.046875 12.117188 Z M 16.046875 12.117188 "/>
<path style=" stroke:none;fill-rule:nonzero;fill:rgb(55.29412%,55.29412%,55.29412%);fill-opacity:1;" d="M 18.367188 21.886719 C 18.367188 21.953125 18.367188 22.015625 18.367188 22.078125 C 18.410156 22.101562 18.453125 22.121094 18.496094 22.144531 C 18.261719 22.113281 18.136719 22.074219 17.984375 21.886719 C 18.175781 21.824219 18.175781 21.824219 18.367188 21.886719 Z M 18.367188 21.886719 "/>
<path style=" stroke:none;fill-rule:nonzero;fill:rgb(58.039218%,58.039218%,58.039218%);fill-opacity:1;" d="M 18.433594 18.6875 C 18.71875 18.75 18.71875 18.75 19.007812 18.816406 C 18.945312 18.878906 18.882812 18.941406 18.816406 19.007812 C 18.6875 18.925781 18.558594 18.839844 18.433594 18.753906 C 18.433594 18.730469 18.433594 18.710938 18.433594 18.6875 Z M 18.433594 18.6875 "/>
<path style=" stroke:none;fill-rule:nonzero;fill:rgb(30.980393%,30.980393%,30.980393%);fill-opacity:1;" d="M 14.398438 6.976562 C 14.328125 7.132812 14.269531 7.234375 14.144531 7.359375 C 14.121094 7.253906 14.101562 7.148438 14.078125 7.039062 C 14.207031 6.976562 14.207031 6.976562 14.398438 6.976562 Z M 14.398438 6.976562 "/>
<path style=" stroke:none;fill-rule:nonzero;fill:rgb(60.000002%,60.000002%,60.000002%);fill-opacity:1;" d="M 18.6875 21.566406 C 18.875 21.609375 19.03125 21.667969 19.199219 21.761719 C 19.078125 21.828125 19.078125 21.828125 18.945312 21.886719 C 18.902344 21.867188 18.859375 21.847656 18.816406 21.824219 C 18.816406 21.761719 18.816406 21.699219 18.816406 21.632812 C 18.773438 21.609375 18.730469 21.589844 18.6875 21.566406 Z M 18.6875 21.566406 "/>
<path style=" stroke:none;fill-rule:nonzero;fill:rgb(17.254902%,17.647059%,17.254902%);fill-opacity:1;" d="M 11.390625 21.183594 C 11.390625 21.351562 11.390625 21.523438 11.390625 21.695312 C 11.351562 21.675781 11.308594 21.652344 11.265625 21.632812 C 11.222656 21.4375 11.222656 21.4375 11.199219 21.246094 C 11.328125 21.183594 11.328125 21.183594 11.390625 21.183594 Z M 11.390625 21.183594 "/>
<path style=" stroke:none;fill-rule:nonzero;fill:rgb(44.313726%,44.313726%,44.313726%);fill-opacity:1;" d="M 13.246094 10.816406 C 13.40625 10.847656 13.40625 10.847656 13.566406 10.878906 C 13.546875 10.945312 13.527344 11.007812 13.503906 11.070312 C 13.527344 11.210938 13.527344 11.210938 13.566406 11.328125 C 13.394531 11.175781 13.324219 11.03125 13.246094 10.816406 Z M 13.246094 10.816406 "/>
<path style=" stroke:none;fill-rule:nonzero;fill:rgb(61.176473%,61.176473%,61.176473%);fill-opacity:1;" d="M 18.367188 9.28125 C 18.410156 9.300781 18.453125 9.320312 18.496094 9.34375 C 18.496094 9.472656 18.496094 9.597656 18.496094 9.726562 C 18.476562 9.6875 18.453125 9.644531 18.433594 9.601562 C 18.367188 9.621094 18.304688 9.640625 18.238281 9.664062 C 18.28125 9.539062 18.324219 9.410156 18.367188 9.28125 Z M 18.367188 9.28125 "/>
<path style=" stroke:none;fill-rule:nonzero;fill:rgb(51.764709%,51.764709%,51.764709%);fill-opacity:1;" d="M 13.761719 7.359375 C 13.78125 7.421875 13.800781 7.488281 13.824219 7.550781 C 13.734375 7.730469 13.621094 7.742188 13.441406 7.808594 C 13.519531 7.574219 13.546875 7.503906 13.761719 7.359375 Z M 13.761719 7.359375 "/>
</g>
</svg>
